<?xml version="1.0" encoding="utf-8"?>
<!-- Generator: Adobe Illustrator 24.0.1, SVG Export Plug-In . SVG Version: 6.00 Build 0)  -->
<svg version="1.1" id="Layer_1" xmlns="http://www.w3.org/2000/svg" xmlns:xlink="http://www.w3.org/1999/xlink" x="0px" y="0px"
	 viewBox="0 0 1000 1000" style="enable-background:new 0 0 1000 1000;" xml:space="preserve">
<style type="text/css">
	.st0{stroke:#000000;stroke-width:0.5;stroke-miterlimit:10;}
</style>
<g>
	<path class="st0" d="M181.7,499.23c-1.08-154.17,133.26-269.41,297.19-269.41V75.6h-57.88l-19.15,64.13
		c-27.42,4.53-53.97,12.27-79.23,22.77l-53.62-46.99l-55.19,32.48l14.68,69.51c-23.98,18.78-38.14,34.23-57,58l-69.98-14.96
		l-32.48,55.19l47.09,53.64c-10.73,25.43-16.55,48.12-21.04,75.6l-67.61,22.14l-0.15,64.02l68.45,22.95
		c4.24,26.98,10.68,50.19,20.93,75.2L69.2,682.42l32.68,54.99l69.62-15.91c17.89,22.5,32.46,37.97,55,56l-14.39,70.86l55.35,32.11
		l52.64-46.66c25.81,10.86,53,18.87,81.14,23.53L421.01,924h57.88V769.78C313,769.78,182.68,652.06,181.7,499.23z"/>
	<path class="st0" d="M905.84,553.68l66.44-22.54l-0.15-64.02l-67.36-22.08c-4.42-27.04-21.04-75.87-21.04-75.87l46.83-53.44
		l-32.42-55.19l-70.06,15.08l-57.26-58.14l14.97-69.5l-55.14-32.48l-53.58,46.91c-25.21-10.46-51.69-18.18-79.06-22.7L578.85,75.6
		h-57.88v154.22c163.93,0,298.27,115.24,297.19,269.41c-1.03,152.83-131.3,270.55-297.19,270.55V924h57.88l19.77-66.66
		c28.08-4.65,55.21-12.63,80.97-23.45l52.55,46.58l55.4-32.11L772.5,777.5c21.86-17.56,38.13-33.99,55.6-55.78l69.62,15.69
		l32.73-54.99l-46.93-54.05C893.38,604.13,901.61,579.78,905.84,553.68z"/>
	<path class="st0" d="M683.35,394.27c1.86-23.03,25.09-63.25,29.53-86.89c-38.98,1.14-90.61,9.71-217.73,13.63
		c-91.39,2.94-130.47-16.32-173.53,2.94c-74.45,33.41-86.07,140.44-73.99,152.16c32.01-65,117.36-89.94,150.09-83.13
		c6.76,55.76-19.46,187.57-81.01,232.7c-80.65,59.17,48.12,112.92,79.72,41.87c35.52-79.93,49.51-234.46,51.01-271.94
		c44.56,0,87.31,1.96,118.29,1.96c-3.67,69.19-18.12,223.15-2.94,246.18c56.79,86.38,167.7-37.17,188.35-95.41
		c-14.25,15.49-114.83,87.77-126.55,41.3c-14.25-56.23,0.41-132.18,2.58-194.8C649.94,394.83,665.17,394.27,683.35,394.27z"/>
	<ellipse class="st0" cx="496.91" cy="531.45" rx="44.3" ry="68.31"/>
</g>
</svg>
