<?xml version="1.0" encoding="utf-8"?>
<!-- Generator: Adobe Illustrator 22.1.0, SVG Export Plug-In . SVG Version: 6.00 Build 0)  -->
<svg version="1.1" id="Layer_2" xmlns="http://www.w3.org/2000/svg" xmlns:xlink="http://www.w3.org/1999/xlink" x="0px" y="0px"
	 viewBox="0 0 1000 1000" style="enable-background:new 0 0 1000 1000;" xml:space="preserve">
<g>
	<polygon points="544.3,656.8 428,656.8 428,744 336.6,835.4 486.2,985 635.7,835.4 544.3,744 	"/>
	<rect x="457.1" y="19" width="60.2" height="612.8"/>
	<path d="M729.2,85.5V33.5h-108c-18,38.5-44.1,61.1-72.7,76.9v62.3v62.3c28.6,15.7,54.7,38.3,72.7,76.9h108V260
		c-31.8,1.7-48.5-12.6-47.8-45.7h47.8v-41.5v-41.5h-47.8C680.7,98.1,697.4,83.8,729.2,85.5z"/>
	<path d="M425.9,235.1v-62.3v-62.3c-28.6-15.7-54.7-38.3-72.7-76.9h-108v51.9c31.8-1.7,48.5,12.6,47.8,45.7h-47.8v41.5v41.5H293
		c0.8,33.1-16,47.4-47.8,45.7v51.9h108C371.2,273.4,397.3,250.8,425.9,235.1z"/>
</g>
</svg>
