<?xml version="1.0" encoding="utf-8"?>
<!-- Generator: Adobe Illustrator 24.2.0, SVG Export Plug-In . SVG Version: 6.00 Build 0)  -->
<svg version="1.1" id="Layer_2" xmlns="http://www.w3.org/2000/svg" xmlns:xlink="http://www.w3.org/1999/xlink" x="0px" y="0px"
	 viewBox="0 0 1000 1000" style="enable-background:new 0 0 1000 1000;" xml:space="preserve">
<path d="M322.68,985c-58.35-124.21-78.29-278.69-80.79-446.9c65.32-10.31,159.85-65.32,158.14-159.85
	c-13.75-63.6-79.07-67.04-79.07-67.04c-67.04,0-65.32,46.41-116.88,42.97c-60.16-37.81-51.57-106.57-51.57-106.57
	c8.18-33.49,18.12-63.47,36.1-77.35C377.11,191.73,641.36,81.42,874.44,19c-233.77,140.95-211.44,348,0,352.37
	C725,380,609.73,491.69,716.3,667.01C400.03,569.04,317.87,757.22,322.68,985z"/>
</svg>
