<?xml version="1.0" encoding="utf-8"?>
<!-- Generator: Adobe Illustrator 24.2.0, SVG Export Plug-In . SVG Version: 6.00 Build 0)  -->
<svg version="1.1" id="Layer_3" xmlns="http://www.w3.org/2000/svg" xmlns:xlink="http://www.w3.org/1999/xlink" x="0px" y="0px"
	 viewBox="0 0 1000 1000" style="enable-background:new 0 0 1000 1000;" xml:space="preserve">
<g>
	<path d="M642.32,323.4v-12.02c-7.25-1.98-16.11-6.64-25.55-4.51c-12.62,3.51-24.36,5.1-33.06,0c0,0-7.51-13.53-13.53-10.52
		c-6.01,3.01-20.29,35.32-21.04,40.58c-0.75,5.26,19.73,25.55,22.54,21.04c1.04-1.67,18.79-20.29,24.05-31.56
		C600.99,319.64,626.36,319.17,642.32,323.4z"/>
	<path d="M597.99,472.94c14.23,8.36,26.02,19.11,36.07,31.56c2.32-13.97,6.07-25.7,13.53-31.56
		c-12.02-28.55-17.65-77.97-24.05-123.24l-13.53-10.52l-15.03,15.03C604.36,397.43,610.01,463.92,597.99,472.94z"/>
	<path d="M661.11,358.72c0,0-9.02-19.54-22.54-19.54c-4.51,0-7.51,15.03-7.51,15.03c15.99,43.5,28.55,118.73,19.54,135.26
		c0,0,36.07,45.09,36.07,46.59c0,1.5,12.02-43.58,12.02-43.58C687.52,476.91,672.07,414.55,661.11,358.72z"/>
	<path d="M671.63,339.18c0,0-4.51,18.03-4.51,19.54c22.35,64.59,45.3,130.1,43.58,157.8c15.79,7.22,28.44,17.62,39.08,30.06
		c1.91-15.66,6.07-31.95,15.03-49.6c-25.81-31.99-51.39-94.46-76.65-157.8H671.63z"/>
	<path d="M715.12,326.51l-16.15,3.54c0,0-0.54,18.58-0.22,20.05c35.67,58.3,69.12,100.84,73.39,128.26
		c16.97,3.67,31.56,11.12,44.61,20.98c-1.49-15.7-0.92-32.51,4.05-51.66C788.74,421.97,753.37,382.96,715.12,326.51z"/>
	<path d="M727.28,304.01l-11.59,8.42c0,0,7.32,16.72,8.19,17.93c53.21,40.28,107.38,80.99,122.28,104.02
		c15.27-2.27,30.19-0.39,44.87,4.13c-7.76-13.5-14.31-28.65-18.28-47.33C836.05,378.75,781.81,341.81,727.28,304.01z"/>
	<path d="M931.63,331.67c-50.12-13.5-116.99-39.63-189.36-69.13l-13.53,12.02l6.01,16.53c63.89,29.56,139.28,61.07,156.3,82.66
		c15.03-10.52,32.19-12.32,49.6-15.03C935.06,354.74,930.44,334.75,931.63,331.67z"/>
	<path d="M969.2,261.26c-30.21-3.35-156.3-36.11-209.38-47.61c-13.84,9.76-17.25,20.51-12.3,32.06
		c29.88-2.65,194.77,47.79,214.37,65.28c-0.57-2.06,27.65-21.31,31.11-17.56C983.68,283.21,966.86,271.8,969.2,261.26z"/>
	<path d="M962.1,311.17c-0.06-0.06-0.14-0.12-0.21-0.17C961.92,311.08,961.97,311.14,962.1,311.17z"/>
	<path d="M647.58,327.16c3.01,4.51,6.01,4.51,13.53,0c7.51-4.51,12.02-15.03,6.01-16.53c-6.01-1.5-19.54,0-19.54,0
		S644.58,322.65,647.58,327.16z"/>
	<path d="M703.19,310.63c2.42-4.74,1.44-8.28-7.51-9.02c-7.66,1.12-13.78,4.77-19.54,9.02c0,0-4.51,13.53-6.01,16.53
		C680.88,328.49,691.9,323.15,703.19,310.63z"/>
	<path d="M710.7,298.6c0,0,18.03-25.55,13.53-30.06c-4.51-4.51-25.55,0-25.55,0s-6.01,21.04-3.01,25.55
		C698.68,298.6,710.7,298.6,710.7,298.6z"/>
	<path d="M724.23,258.02c0,0,15.32-43.7,28.55-63.12c-21.93,20.01-39.59,42.24-51.1,67.63C710.5,263.82,718.53,263.41,724.23,258.02
		z"/>
	<path d="M539.37,346.69c-2.51,4.66-3.61,9.18-3.01,13.53c-3.8,5.95-13.64,8.33-25.55,13.53l3.01,7.51
		c13.59-2.17,24.96-5.17,30.06-10.52c4.38,1.72,7.1,4.18,4.51,9.02c-9.26,4.96-20.17,7.63-34.57,7.51v7.51
		c16.52,0.97,31.83-0.45,42.08-3.01c3.59,0.81,4.81,2.71,3.01,6.01c-7.31,6.28-26.92,4.18-46.59,6.01l3.01,9.02
		c20.15,1.04,39.51,3.58,48.09-3.01c2.89,3.37,2.35,7.38-1.5,12.02c-4.51,4.51-25.55,6.01-48.09,0c0,0,1.5,6.01,3.01,9.02
		c9.02,4.51,19.54,4.51,31.56,7.51c16.53,0,27.05-16.53,27.05-16.53s-7.51,24.05-15.03,27.05c-7.51,3.01-46.59-10.52-46.59-10.52
		v9.02c0,0,30.06,18.03,52.6,18.03c7.51,0,21.04-43.58,21.04-43.58C576.76,388.35,564.01,358.11,539.37,346.69z"/>
	<path d="M509.87,317.8c1.64,1.51,3.5,2.55,5.35,3.09c1.89,4.28,5.58,6.61,9.23,6.13c10.41-1.37,6.84-6.48,5.58-12.37
		c-1.21-5.64-5.43-9.54-9.6-9.04c-4.38-3.82-5.1-10.01-13.12-1.14C504.32,307.77,505.45,313.73,509.87,317.8z"/>
	<path d="M523.88,298.46c1.64,1.51,3.5,2.55,5.35,3.09c1.89,4.28,5.54,6.16,9.23,6.13c6.93-0.06,6.84-6.48,5.58-12.37
		c-1.21-5.64-5.43-9.54-9.6-9.04c-4.38-3.82-7.09-7.2-13.12-1.14C518.17,288.28,519.46,294.39,523.88,298.46z"/>
	<path d="M536.81,281.77c1.41,1.3,3.99,1.34,5.57,1.8c1.63,3.67,3.86,6.76,6.95,6.09c3.73-0.81,5.88-5.55,4.79-10.6
		c-1.04-4.83-4.66-8.17-8.24-7.74c-3.77-3.27-5-7.29-11.27-0.98C531.91,273.06,533.01,278.28,536.81,281.77z"/>
	<path d="M566.13,268.26c-0.31-3.54-2.78-6.33-5.62-6.44c-2.59-2.75-6.43-3.65-8.68-1.98c-2.3,1.71-2.07,5.45,0.52,8.35
		c0.96,1.08,2.12,1.89,3.31,2.4c0.88,2.79,3.15,4.75,5.63,4.63C564.28,275.08,566.45,271.96,566.13,268.26z"/>
	<path d="M579.95,280.57c4.51,3.01,7.51-3.01,9.02-3.01c6.01,1.5,19.54,12.02,31.56,12.02s15.03-7.51,15.03-7.51
		c-11.92,2.42-26.48-3.52-37.57-16.53c-7.45,1.53-13.68,1.42-24.05,0C573.94,265.54,575.44,277.56,579.95,280.57z"/>
	<path d="M563.42,243c4.51,3.01-1.5,16.53,12.02,19.54c13.53,3.01,24.05-1.5,24.05-1.5c15.03-12.02,43.21,15.46,43.58,25.55
		c7.51-13.53,6.01-31.56,3.01-34.57c-3.01-3.01-34.57-27.05-34.57-27.05s-18.03-21.04-40.58-21.04c-18.03,0-22.54,16.53-22.54,21.04
		C549.89,247.5,561.92,241.49,563.42,243z M596.48,230.97c10.63,0,18.03,12.02,18.03,12.02s13.53,3.01,18.03,7.51
		c4.51,4.51,6.09,14.99,4.51,12.02c-1.43-2.69-29.17-10.1-34.57-9.02c-7.51,1.5-18.03-4.51-18.03-12.02
		C584.46,241.49,590.47,227.97,596.48,230.97z"/>
	<path d="M581.45,566.12c-8.42-3.77-22.54-32.12-22.54-34.57c0-4.98-3.03-9.02-6.76-9.02c-3.74,0-6.76,4.04-6.76,9.02
		c0,1.8,0.4,3.47,1.08,4.88c-4.13,0.91-7.09,3.43-7.09,6.39c0,3.74,4.71,6.76,10.52,6.76c0.25,0,0.49-0.01,0.73-0.02
		c14.3,18.06,12.79,33.09,15.8,36.09c0,0,10.52-1.5,13.53-4.51C579.84,582.24,581.45,566.53,581.45,566.12z"/>
	<path d="M635.56,585.65c-4.51-1.5-39.08,3.01-51.1-3.01c-3.01,1.5-10.52,7.51-10.52,9.02c0,1.5,3.01,9.02,6.01,9.02
		c3.01,0,9.02-7.51,9.02-7.51s18.03,1.5,19.54,1.5c1.5,0,9.02,4.51,7.51,9.02c6.01,1.5,12.02,0,15.03-1.5
		C634.05,600.68,638.56,590.16,635.56,585.65z"/>
	<path d="M637.06,645.77c4.64,10.96,1.43,21.4-6.01,31.56c11.02-6.77,18.03-15.79,21.04-27.05
		C647.08,651.55,642.07,650.04,637.06,645.77z"/>
	<path d="M689.05,606.29c0.27,5.16-2.17,9.78-7.33,13.87c11.65-2.43,21.27,2.74,29.8,12.01
		C707.01,620.04,699.52,611.42,689.05,606.29z"/>
	<path d="M692.04,548.58c-12.61,2.9-22.13,9.21-28.57,18.93c5.15,0.4,9.42,3.42,12.81,9.07
		C675.37,564.71,681.74,555.84,692.04,548.58z"/>
	<path d="M648.42,600.68c2.21-6.79,12.21-16.83,12.21-16.83c3.41-2.38,7.07-3.21,10.99-2.4c-3.33-7.51-7.95-10.62-13.43-10.82
		l-1.22,6.01c-8.74,10.88-11.85,11.72-14.65,12.02C640.28,596.85,642.42,600.74,648.42,600.68z"/>
	<path d="M684.12,601l-6.36,1.93c-14.46-2.2-16.67-4.49-18.23-6.79c-8.83,2.31-11.64,6.13-8.87,11.33
		c7.56-1.46,21.78,2.26,21.78,2.26c3.84,1.78,6.29,4.57,7.28,8.4C685.47,611.48,686.39,605.89,684.12,601z"/>
	<path d="M652.35,616.91c-4.49-7.14-8.78-8.3-12.9-3.94c3.35,6.3,3.66,20.47,3.66,20.47c-0.64,4.11-2.75,4.05-6.05,6.32
		c6.01,6.01,12.59,8.32,16.53,4.51l-2.74-8.46C649.07,621.96,650.63,619.14,652.35,616.91z"/>
	<path d="M597.99,711.9c-19.44-14.93-40.03-79.16-69.13-129.25c-1.88,4.69-3.31,9.85-9.02,10.52
		c24.36,59.74,34.57,127.75,40.58,159.31c18.51-1.5,33.24,4.72,45.09,12.02C599.85,744.94,596.32,726.74,597.99,711.9z"/>
	<path d="M454.86,336.51c-0.75-5.26-15.03-37.57-21.04-40.58c-6.01-3.01-13.53,10.52-13.53,10.52c-8.7,5.1-20.44,3.51-33.06,0
		c-9.43-2.13-18.3,2.53-25.55,4.51v12.02c15.96-4.23,41.33-3.76,46.59,3.01c5.26,11.27,23,29.89,24.05,31.56
		C435.13,362.06,455.61,341.77,454.86,336.51z"/>
	<path d="M393.99,338.76l-13.53,10.52c-6.4,45.27-12.02,94.68-24.05,123.24c7.46,5.86,11.2,17.59,13.53,31.56
		c10.05-12.45,21.84-23.2,36.07-31.56c-12.02-9.02-6.37-75.51,3.01-118.73L393.99,338.76z"/>
	<path d="M365.44,338.76c-13.53,0-22.54,19.54-22.54,19.54c-10.96,55.84-26.41,118.19-37.57,133.76c0,0,12.02,45.09,12.02,43.58
		c0-1.5,36.07-46.59,36.07-46.59c-9.02-16.53,3.55-91.76,19.54-135.26C372.95,353.79,369.95,338.76,365.44,338.76z"/>
	<path d="M336.88,358.3c0-1.5-4.51-19.54-4.51-19.54h-16.53c-25.26,63.34-50.83,125.81-76.65,157.8
		c8.96,17.65,13.12,33.94,15.03,49.6c10.64-12.43,23.28-22.84,39.08-30.06C291.58,488.4,314.53,422.89,336.88,358.3z"/>
	<path d="M305.02,329.63l-16.15-3.54c-38.25,56.45-73.61,95.46-105.68,121.18c4.97,19.16,5.54,35.96,4.05,51.66
		c13.05-9.87,27.63-17.32,44.61-20.98c4.26-27.42,37.71-69.96,73.39-128.26C305.56,348.22,305.02,329.63,305.02,329.63z"/>
	<path d="M288.31,312.02l-11.59-8.42c-54.53,37.8-108.77,74.74-145.46,87.17c-3.97,18.68-10.52,33.83-18.28,47.33
		c14.68-4.53,29.6-6.4,44.87-4.13c14.9-23.03,69.06-63.74,122.28-104.02C280.99,328.74,288.31,312.02,288.31,312.02z"/>
	<path d="M269.25,290.67l6.01-16.53l-13.53-12.02c-72.38,29.5-139.24,55.63-189.36,69.13c1.19,3.09-3.43,23.08-9.02,27.05
		c17.4,2.71,34.57,4.51,49.6,15.03C129.97,351.74,205.36,320.23,269.25,290.67z"/>
	<path d="M256.48,245.29c4.94-11.54,1.54-22.29-12.3-32.06C191.09,224.73,65,257.49,34.8,260.84c2.34,10.54-14.48,21.95-23.8,32.17
		c3.46-3.75,31.68,15.5,31.11,17.56C61.72,293.08,226.6,242.65,256.48,245.29z"/>
	<path d="M42.11,310.57c-0.06,0.06-0.14,0.12-0.21,0.17C42.03,310.72,42.08,310.66,42.11,310.57z"/>
	<path d="M342.89,326.74c7.51,4.51,10.52,4.51,13.53,0c3.01-4.51,0-16.53,0-16.53s-13.53-1.5-19.54,0
		C330.87,311.71,335.38,322.23,342.89,326.74z"/>
	<path d="M300.81,310.21c11.29,12.53,22.31,17.87,33.06,16.53c-1.5-3.01-6.01-16.53-6.01-16.53c-5.76-4.24-11.88-7.9-19.54-9.02
		C299.38,301.93,298.4,305.47,300.81,310.21z"/>
	<path d="M279.77,268.13c-4.51,4.51,13.53,30.06,13.53,30.06s12.02,0,15.03-4.51c3.01-4.51-3.01-25.55-3.01-25.55
		S284.28,263.62,279.77,268.13z"/>
	<path d="M302.32,262.12c-11.51-25.39-29.17-47.62-51.1-67.63c13.24,19.42,28.55,63.12,28.55,63.12
		C285.47,262.99,293.5,263.4,302.32,262.12z"/>
	<path d="M437.58,465.01c22.54,0,52.6-18.03,52.6-18.03v-9.02c0,0-39.08,13.53-46.59,10.52c-7.51-3.01-15.03-27.05-15.03-27.05
		s10.52,16.53,27.05,16.53c12.02-3.01,22.54-3.01,31.56-7.51c1.5-3.01,3.01-9.02,3.01-9.02c-22.54,6.01-43.58,4.51-48.09,0
		c-3.85-4.64-4.39-8.65-1.5-12.02c8.58,6.58,27.94,4.05,48.09,3.01l3.01-9.02c-19.67-1.84-39.28,0.27-46.59-6.01
		c-1.81-3.3-0.58-5.2,3.01-6.01c10.25,2.55,25.56,3.98,42.08,3.01v-7.51c-14.4,0.11-25.3-2.55-34.57-7.51
		c-2.59-4.84,0.13-7.3,4.51-9.02c5.1,5.35,16.47,8.35,30.06,10.52l3.01-7.51c-11.91-5.19-21.75-7.57-25.55-13.53
		c0.6-4.35-0.49-8.86-3.01-13.53c-24.63,11.41-37.39,41.66-48.09,75.14C416.53,421.42,430.06,465.01,437.58,465.01z"/>
	<path d="M483.57,305.19c-4.17-0.5-8.39,3.4-9.6,9.04c-1.26,5.89-4.84,11,5.58,12.37c3.66,0.48,7.34-1.85,9.23-6.13
		c1.85-0.54,3.71-1.57,5.35-3.09c4.42-4.07,5.55-10.03,2.56-13.34C488.67,295.18,487.95,301.37,483.57,305.19z"/>
	<path d="M459.97,294.89c-1.26,5.89-1.35,12.31,5.58,12.37c3.69,0.03,7.34-1.85,9.23-6.13c1.85-0.54,3.71-1.57,5.35-3.09
		c4.42-4.07,5.7-10.18,2.56-13.34c-6.03-6.06-8.74-2.68-13.12,1.14C465.39,285.35,461.18,289.25,459.97,294.89z"/>
	<path d="M449.88,278.65c-1.09,5.05,1.06,9.79,4.79,10.6c3.09,0.67,5.33-2.43,6.95-6.09c1.59-0.46,4.16-0.51,5.57-1.8
		c3.79-3.49,4.89-8.71,2.2-11.42c-6.27-6.31-7.5-2.29-11.27,0.98C454.54,270.48,450.92,273.82,449.88,278.65z"/>
	<path d="M448.34,270.17c1.19-0.51,2.34-1.32,3.31-2.4c2.59-2.91,2.83-6.65,0.52-8.35c-2.25-1.67-6.09-0.77-8.68,1.98
		c-2.84,0.1-5.31,2.89-5.62,6.44c-0.32,3.7,1.85,6.82,4.84,6.97C445.19,274.93,447.46,272.96,448.34,270.17z"/>
	<path d="M415.03,277.14c1.5,0,4.51,6.01,9.02,3.01c4.51-3.01,6.01-15.03,6.01-15.03c-10.36,1.42-16.6,1.53-24.05,0
		c-11.1,13.01-25.65,18.95-37.57,16.53c0,0,3.01,7.51,15.03,7.51S409.02,278.65,415.03,277.14z"/>
	<path d="M404.51,260.61c0,0,10.52,4.51,24.05,1.5c13.53-3.01,7.51-16.53,12.02-19.54c1.5-1.5,13.53,4.51,15.03-18.03
		c0-4.51-4.51-21.04-22.54-21.04c-22.54,0-40.58,21.04-40.58,21.04s-31.56,24.05-34.57,27.05s-4.51,21.04,3.01,34.57
		C361.3,276.07,389.48,248.59,404.51,260.61z M371.45,250.09c4.51-4.51,18.03-7.51,18.03-7.51s7.41-12.02,18.03-12.02
		c6.01-3.01,12.02,10.52,12.02,10.52c0,7.51-10.52,13.53-18.03,12.02c-5.4-1.08-33.13,6.33-34.57,9.02
		C365.36,265.08,366.94,254.6,371.45,250.09z"/>
	<path d="M453.38,549.14c0.24,0.01,0.48,0.02,0.73,0.02c5.81,0,10.52-3.03,10.52-6.76c0-2.96-2.97-5.47-7.09-6.39
		c0.68-1.41,1.08-3.08,1.08-4.88c0-4.98-3.03-9.02-6.76-9.02c-3.74,0-6.76,4.04-6.76,9.02c0,2.45-14.13,30.8-22.54,34.57
		c0.01,0.41,1.61,16.13,1.5,15.03c3.01,3.01,13.53,4.51,13.53,4.51C440.58,582.23,439.08,567.2,453.38,549.14z"/>
	<path d="M424.05,600.27c3.01,0,6.01-7.51,6.01-9.02c0-1.5-7.51-7.51-10.52-9.02c-12.02,6.01-46.59,1.5-51.1,3.01
		c-3.01,4.51,1.5,15.03,4.51,16.53c3.01,1.5,9.02,3.01,15.03,1.5c-1.5-4.51,6.01-9.02,7.51-9.02c1.5,0,19.54-1.5,19.54-1.5
		S421.04,600.27,424.05,600.27z"/>
	<path d="M366.94,645.35c-5.01,4.27-10.02,5.78-15.03,4.51c3.01,11.26,10.02,20.28,21.04,27.05
		C365.51,666.75,362.3,656.31,366.94,645.35z"/>
	<path d="M314.95,605.87c-10.47,5.13-17.96,13.76-22.47,25.88c8.53-9.27,18.15-14.44,29.8-12.01
		C317.12,615.65,314.67,611.03,314.95,605.87z"/>
	<path d="M340.53,567.09c-6.44-9.72-15.96-16.03-28.57-18.93c10.3,7.26,16.66,16.13,15.76,28
		C331.11,570.51,335.38,567.48,340.53,567.09z"/>
	<path d="M343.36,583.43c0,0,10,10.04,12.21,16.83c6,0.06,8.14-3.84,6.11-12.02c-2.81-0.31-5.91-1.14-14.65-12.02l-1.22-6.01
		c-5.48,0.2-10.11,3.31-13.43,10.82C336.3,580.23,339.96,581.05,343.36,583.43z"/>
	<path d="M344.48,595.73c-1.56,2.3-3.77,4.59-18.23,6.79l-6.36-1.93c-2.28,4.89-1.35,10.48,4.41,17.13c0.99-3.83,3.44-6.61,7.28-8.4
		c0,0,14.22-3.72,21.78-2.26C356.11,601.85,353.31,598.04,344.48,595.73z"/>
	<path d="M350.41,643.85c3.95,3.81,10.52,1.5,16.53-4.51c-3.3-2.27-5.41-2.21-6.05-6.32c0,0,0.3-14.17,3.66-20.47
		c-4.12-4.36-8.41-3.2-12.9,3.94c1.73,2.23,3.28,5.05,1.5,18.9L350.41,643.85z"/>
	<path d="M475.15,582.23c-29.11,50.09-49.7,114.32-69.13,129.25c1.66,14.84-1.87,33.04-7.51,52.6
		c11.85-7.31,26.58-13.53,45.09-12.02c6.01-31.56,16.22-99.57,40.58-159.31C480.47,592.5,477.68,587.96,475.15,582.23z"/>
	<path d="M491.28,600.68c-6.18,60.65-11.38,125.85-27.05,142.77c15.19,6.25,29.13,21.35,42.08,43.58
		c6.56-20.09,14.62-36.47,27.05-42.08c-13.53-12.02-19.26-80.78-19.54-144.28C505.97,604.76,498.42,605.17,491.28,600.68z"/>
	<path d="M485.27,459.41c-4.42,4.35-6.93,11.37-7.51,21.04l7.51,6.01c13.19-0.21,25.79-2.44,37.57-7.51
		c2.47-9.21,0.81-17.01-7.51-22.54c0,0-13.53-3.01-16.53-3.01C495.79,453.4,485.27,459.41,485.27,459.41z"/>
	<path d="M492.78,489.47c0,0-9.02,7.51-6.01,10.52c3.01,3.01,9.02,9.02,9.02,9.02l13.53,1.5l6.01-6.01c0,0,4.51-12.02,0-15.03
		C510.82,486.46,500.93,492.84,492.78,489.47z"/>
	<polygon points="506.31,376.75 498.79,376.75 500.3,445.89 506.31,445.89 	"/>
	<path d="M489.78,339.18c-0.02,0.06,0.01,0.13,0.01,0.19c-4.04-1.51-10.53,1.31-11.3,1.32c-6.54,0.05-4.84,12.73,0.44,19.13
		c5.29,6.4,13.66,8.21,18.7,4.05c0,0,21.83,3.14,28.23-2.14c6.4-5.29,3.08-14.41-1.08-19.45c-2.52-3.05-6.66-4.17-10.96-3.41
		c-1.49-5.69-9-14.7-12.01-14.7C498.79,324.15,491.28,333.17,489.78,339.18z"/>
	<path d="M555.9,509.01c0,0,1.5-9.02-3.01-13.53c-4.51-4.51-16.53,1.5-16.53,1.5s-30.06,22.54-33.06,22.54
		c-3.01,0-34.57-21.04-34.57-21.04s-10.52-3.01-13.53-1.5c-3.01,1.5-1.5,15.03-1.5,15.03l9.02,6.01
		c19.29,10.4,31.92,30.25,30.06,61.62c6.51,6.25,13.03,6.25,19.54,0c-0.57-13.74,0.24-26.34,4.51-36.07
		C525.94,530.12,539.7,518.96,555.9,509.01z"/>
</g>
</svg>
