<?xml version="1.0" encoding="utf-8"?>
<!-- Generator: Adobe Illustrator 24.1.2, SVG Export Plug-In . SVG Version: 6.00 Build 0)  -->
<svg version="1.1" id="Layer_1" xmlns="http://www.w3.org/2000/svg" xmlns:xlink="http://www.w3.org/1999/xlink" x="0px" y="0px"
	 viewBox="0 0 1000 1000" style="enable-background:new 0 0 1000 1000;" xml:space="preserve">
<g id="layer1" transform="translate(-74.924005,-7.060149)">
	<path id="path826" d="M202.62,23.54c11.06,127.22,86.28,239.99,199.49,299.07L261.4,566.33h275.26V707.9h275.26v65.35H261.4v217.8
		h626.75v-76.22H337.63v-65.35h550.53v-217.8H612.89v-65.35h275.26L747.41,322.54c113.2-59.06,188.44-171.8,199.53-299h-98.07
		c-0.17,94.92-54.67,182.27-142.36,228.16L574.78,23.54L442.3,253.01c-82.96-42.43-137.27-122.09-144-211.18
		c-0.35-6.09-0.48-12.19-0.39-18.28H202.62z M574.78,198.17l162.74,281.87H412.05L574.78,198.17z"/>
</g>
</svg>
