<?xml version="1.0" encoding="utf-8"?>
<!-- Generator: Adobe Illustrator 24.0.1, SVG Export Plug-In . SVG Version: 6.00 Build 0)  -->
<svg version="1.1" id="Layer_1" xmlns="http://www.w3.org/2000/svg" xmlns:xlink="http://www.w3.org/1999/xlink" x="0px" y="0px"
	 viewBox="0 0 1000 1000" style="enable-background:new 0 0 1000 1000;" xml:space="preserve">
<style type="text/css">
	.st0{stroke:#000000;stroke-width:0.5;stroke-miterlimit:10;}
</style>
<g>
	<rect x="12.6" y="729.53" class="st0" width="974.4" height="60.71"/>
	<path class="st0" d="M493.76,490.19c-107.88,2.38-197.49,93.76-201.25,204.22h412.41C700.95,580.49,605.06,487.51,493.76,490.19z"
		/>
	<path class="st0" d="M492.42,428.37c145.18-3.96,270.99,116.85,276.34,266.04H987v-53.05l-96.44-15.31
		c-4.47-21.72-10.63-42.72-18.3-62.91l77.04-64.14l-56.07-90.59l-88.55,38.9c-15.94-19.17-33.57-36.78-52.61-52.6l35.71-88.93
		l-92.33-53.15l-58.66,75.2c-22.94-8.54-46.8-14.96-71.32-19.06l-13.52-95.66H445.41l-13.62,96.38
		c-23.81,4.2-46.95,10.53-69.19,18.81l-63.16-76.46l-90.84,55.72l38.2,87.86c-18.39,15.31-35.4,32.27-50.79,50.69l-89.2-37.5
		L52.18,500.1l76.59,61.77c-7.51,20.17-13.47,41.15-17.7,62.85l-97.43,16v52.95h217.2C235.94,550.07,352.59,432.14,492.42,428.37z"
		/>
</g>
</svg>
