<?xml version="1.0" encoding="utf-8"?>
<!-- Generator: Adobe Illustrator 24.3.0, SVG Export Plug-In . SVG Version: 6.00 Build 0)  -->
<svg version="1.1" id="Layer_2" xmlns="http://www.w3.org/2000/svg" xmlns:xlink="http://www.w3.org/1999/xlink" x="0px" y="0px"
	 viewBox="0 0 1000 1000" style="enable-background:new 0 0 1000 1000;" xml:space="preserve">
<path d="M852.87,327.32h-18.49c-0.02,0.39-0.03,0.76-0.03,1.12c0,35.77-35.69,52.54-83.84,52.54s-87.2-39.04-87.2-87.2
	s7.83-129.68,87.2-129.68c18.46,0,60.85,1.5,87.47,13.41h10.28l-1.86-60.31L505.13,5.41L163.87,117.2l-18.14,589.14
	c0,18.95,304.1,284.62,359.41,287.63c57.53,3.13,359.41-258.62,359.41-287.63L852.87,327.32z M795.23,553.14H737.1v45.83h-84.96
	v-45.83H556v96.14h45.83v84.96H556v58.13H449.8v-58.13h-45.83v-84.96h45.83v-96.14h-96.14v45.83H268.7v-45.83h-58.13v-106.2h58.13
	V401.1h84.96v45.83h96.14v-96.14h-45.83v-84.96h45.83V207.7H556v58.13h45.83v84.96H556v96.14h96.14V401.1h84.96v45.83h58.13V553.14z
	"/>
</svg>
