<?xml version="1.0" encoding="utf-8"?>
<!-- Generator: Adobe Illustrator 24.3.0, SVG Export Plug-In . SVG Version: 6.00 Build 0)  -->
<svg version="1.1" id="Layer_1" xmlns="http://www.w3.org/2000/svg" xmlns:xlink="http://www.w3.org/1999/xlink" x="0px" y="0px"
	 viewBox="0 0 1000 1000" style="enable-background:new 0 0 1000 1000;" xml:space="preserve">
<polygon points="897.29,410.08 897.29,332.25 753.03,332.25 753.03,410.08 589.78,410.08 589.78,246.83 667.61,246.83 
	667.61,102.56 589.78,102.56 589.78,3.85 409.45,3.85 409.45,102.56 331.62,102.56 331.62,246.83 409.45,246.83 409.45,410.08 
	246.2,410.08 246.2,332.25 101.93,332.25 101.93,410.08 3.23,410.08 3.23,590.41 101.93,590.41 101.93,668.24 246.2,668.24 
	246.2,590.41 409.45,590.41 409.45,753.66 331.62,753.66 331.62,897.92 409.45,897.92 409.45,996.63 589.78,996.63 589.78,897.92 
	667.61,897.92 667.61,753.66 589.78,753.66 589.78,590.41 753.03,590.41 753.03,668.24 897.29,668.24 897.29,590.41 996,590.41 
	996,410.08 "/>
</svg>
