<?xml version="1.0" encoding="utf-8"?>
<!-- Generator: Adobe Illustrator 24.2.0, SVG Export Plug-In . SVG Version: 6.00 Build 0)  -->
<svg version="1.1" id="Layer_3" xmlns="http://www.w3.org/2000/svg" xmlns:xlink="http://www.w3.org/1999/xlink" x="0px" y="0px"
	 viewBox="0 0 1000 1000" style="enable-background:new 0 0 1000 1000;" xml:space="preserve">
<g>
	<path d="M672.87,905.82c-29.06-44.43-58.35-88.62-87.25-133.05c-3.78-5.8-7.89-7.81-14.57-7.81c-15.13,0.08-166.77,0.16-181.9,0.08
		c-5.47,0-9.58,0.97-13.04,6.12c-29.38,44.43-59.08,88.7-88.46,133.21c-1.85,2.82-3.54,7.73-2.25,9.9c1.37,2.33,6.36,3.38,9.74,3.38
		c34.13,0.24,109.54,0.87,112.6,1.85c22.28,7.16,65.67,51.89,68.74,69.06c1.38,6.35,8.13,5.47,10.3,0
		c12.15-30.91,35.33-51.11,63.59-66.4c4.99-2.66,82.82-4.19,116.14-4.43c2.25,0,4.51-0.8,6.76-1.61c1.53-0.56,2.41-2.17,2.01-3.78
		C674.72,910.09,674.08,907.75,672.87,905.82z"/>
	<path d="M563.97,626.04c-9.01-14.57-9.58-14.73-20.28-0.56c-9.5,12.48-21.17,19.56-36.94,17.06c-15.7-2.5-31.23-5.8-46.68-9.34
		c-6.6-1.53-14.44,0.07-11.75,6.76c-3.22,11.64-16.2,45.86-48.13,52.72c-6.04,3.51-34.62,1.87-42.82-1.53
		c-6.55-2.71-9.66,3.62-6.36,9.58c8.61,15.7,17.3,31.31,26.4,46.68c1.53,2.58,5.23,4.67,8.13,4.67c30.83,0.32,153.73,0,184.32,0
		c4.1,0,7.4,0.08,9.1-5.55c9.01-30.59,18.59-61.01,28.01-91.52c4.83-15.53,4.83-15.45-11.59-16.26
		C590.29,638.52,567.83,632.24,563.97,626.04z"/>
	<path d="M320.25,619.2c3.94,13.68,8.85,27.2,14,40.49c4.83,12.4,14.81,19.24,27.61,21.17c8.53,1.29,17.22,2.09,25.84,1.69
		c28.25-1.53,38.23-9.42,47.09-36.22c2.74-8.45,5.07-16.98,7.73-26c3.06,0.72,5.55,1.45,8.21,1.85c19.16,3.06,38.23,6.36,57.47,8.85
		c8.85,1.13,16.98-2.58,21.97-9.9c5.71-8.37,10.38-17.55,14.81-26.72c0.72-1.45-1.37-5.55-3.22-6.68
		c-5.31-3.14-11.03-5.55-16.74-7.97c-34.93-14.97-69.78-30.02-104.8-44.67c-2.66-1.13-7.49-0.32-9.74,1.53
		c-28.98,23.58-57.71,47.41-86.2,71.55C321.54,610.43,319.36,616.06,320.25,619.2z"/>
	<path d="M619.02,502.17c-18.35-7.57-33.08-2.41-40.49,14.89c-9.58,22.13-16.1,45.15-15.29,69.78c0,6.52-0.24,12.96,0.08,19.48
		c0.64,13.6,12.56,21.73,31.23,20.36c4.51-0.32,10.87-3.06,12.72-6.6c11.51-22.46,23.66-44.75,32.68-68.25
		C647.35,532.35,638.26,510.14,619.02,502.17z"/>
	<path d="M398.81,525.11c-1.45-19.56-5.63-38.47-14.09-56.26c-3.78-8.21-10.62-12.48-19.72-10.22c-10.87,2.74-21.73,5.96-32.11,10.3
		c-12.31,5.07-16.9,15.29-15.37,25.84c1.85,27.04,7.97,50.47,17.39,73c2.9,6.92,6.2,7.73,12.48,2.82
		c15.94-12.56,31.71-25.27,47.33-38.23C396.71,530.66,399.05,527.44,398.81,525.11z"/>
	<path d="M490.56,539.6c0,0.16,0,0.32,0,0.48c0,0.64-0.08,1.29-0.08,1.93c-0.56,5.55,1.29,8.85,6.36,11.03
		c14.81,6.52,29.54,13.2,44.19,19.88c0.24,0.08,0.4,0.16,0.64,0.24c0.16,0.08,0.32,0.16,0.48,0.16c0.32,0.08,0.56,0.16,0.8,0.24
		c0.08,0,0.24,0.08,0.32,0.08c0.4,0.08,0.72,0.16,1.05,0.24c0.08,0,0.16,0,0.24,0c0.24,0.08,0.48,0.08,0.8,0.08
		c0.08,0,0.24,0,0.32,0c0.16,0,0.4,0,0.56,0s0.24,0,0.32-0.08c0.16,0,0.32-0.08,0.48-0.08c0.08,0,0.24-0.08,0.32-0.08
		c0.16-0.08,0.32-0.08,0.48-0.16c0.08-0.08,0.24-0.08,0.32-0.16c0.16-0.08,0.24-0.16,0.4-0.24c0.08-0.08,0.24-0.16,0.32-0.16
		c0.16-0.08,0.24-0.16,0.4-0.24c0.08-0.08,0.16-0.16,0.32-0.24c0.08-0.08,0.24-0.24,0.32-0.32c0.08-0.08,0.16-0.16,0.24-0.32
		c0.08-0.16,0.24-0.24,0.32-0.4c0.08-0.08,0.16-0.24,0.24-0.32c0.08-0.16,0.16-0.32,0.32-0.48c0.08-0.16,0.16-0.24,0.24-0.4
		c0.08-0.16,0.16-0.4,0.24-0.56s0.08-0.24,0.16-0.4c0.08-0.24,0.16-0.48,0.24-0.72c0.08-0.08,0.08-0.24,0.16-0.32
		c0.16-0.4,0.24-0.72,0.4-1.13c3.06-10.95,7.08-21.65,9.26-32.76c2.66-12.96,4.27-26.08,5.47-39.28c0.8-9.42-4.19-15.78-13.12-19.16
		c-12.15-4.67-24.71-6.04-37.43-3.86c-12.8,2.17-20.44,9.5-22.54,22.21c-1.61,9.82-2.25,19.88-3.62,32.03c0,0.72,0,1.53,0,2.33
		c0,2.01,0.08,4.27,0.08,6.76c0,0.4,0,0.72,0,1.13C490.64,537.51,490.64,538.55,490.56,539.6z"/>
	<path d="M422.95,522.21c15.45,7.08,31.23,13.6,46.76,20.44c6.04,2.66,8.53,0.32,9.42-5.47c3.06-19.32,4.27-38.63,0.24-58.03
		c-4.27-20.85-11.27-26.96-32.52-26.96c-27.21,0-32.84,5.71-32.76,37.02c0.56,5.71,1.21,15.78,2.9,25.6
		C417.4,517.62,420.3,521.01,422.95,522.21z"/>
	<path d="M726.85,426.66l153.85-22.57l-154.02-22.6c-2.68-27.24-9.98-53.12-21.09-76.86l38.56-46.03L684.95,269
		c-15.83-22.56-35.48-42.22-58.03-58.06l10.48-59.72l-46.43,38.91c-24.02-11.21-50.21-18.51-77.8-21.09L490.4,13.79l-22.79,155.31
		c-26.84,2.61-52.36,9.7-75.81,20.51l-46.89-39.28l10.55,60.11c-22.39,15.61-41.96,34.97-57.79,57.19l-60.15-10.56l39.02,46.58
		c-11.36,23.97-18.81,50.14-21.54,77.71L100.1,404.09l154.75,22.71c2.48,27.15,9.53,52.98,20.39,76.7l-38.6,46.07l58.9-10.34
		c11.65,16.91,25.43,32.23,40.96,45.57c1.33-1.11,2.64-2.22,3.97-3.34c-0.69-0.07-1.37-0.18-2.04-0.35
		c-7.23-1.89-10.2-8.98-11.18-11.31l-0.07-0.17c-9.95-23.87-15.61-46.82-17.71-71.88c-14.27-27.83-22.32-59.37-22.32-92.8
		c0-112.5,91.2-203.7,203.7-203.7s203.7,91.2,203.7,203.7c0,46.69-15.72,89.7-42.14,124.05c1.24,8.05,0.5,16.5-2.57,24.57
		c-5.67,14.78-12.56,29.11-19.65,43.07c21.2-15.44,39.75-34.3,54.8-55.79l58.27,10.23l-37.9-45.27
		C716.85,481.44,724.3,454.76,726.85,426.66z"/>
</g>
</svg>
