<?xml version="1.0" encoding="utf-8"?>
<!-- Generator: Adobe Illustrator 24.1.0, SVG Export Plug-In . SVG Version: 6.00 Build 0)  -->
<svg version="1.1" id="Layer_3" xmlns="http://www.w3.org/2000/svg" xmlns:xlink="http://www.w3.org/1999/xlink" x="0px" y="0px"
	 viewBox="0 0 1000 1000" style="enable-background:new 0 0 1000 1000;" xml:space="preserve">
<g>
	<path d="M164.42,98.6h46.92c-23.04-28-53.64-49.08-91.8-63.24c-4.52,11.02,22.44,89.76,44.88,112.2
		C166.25,143.38,164.42,98.6,164.42,98.6z"/>
	<path d="M284.78,786.05c-12.24-26.52-31.56-48.96-37.68-79.56l-22.35,29.68c-47.34-25.98-113.39-26.77-184.76,13.16l59.16,36.72
		c28.33-10.89,56.91-8.08,80.41,3.01L70.59,916.61l0.93,0.98c-13.67-4.85-26.6-3.6-33.3,4.53c-10.03,12.18-2.29,35.11,17.28,51.22
		s43.56,19.31,53.59,7.13c5.15-6.26,5.59-15.36,2.16-24.91L229.03,840.5c6.92,18.26,6.79,38.53-3.41,57.75l51,53.04
		c28.53-60.14,26.15-117.36,2.91-160.11L284.78,786.05z"/>
	<path d="M845.4,147.56c22.44-22.44,49.4-101.18,44.88-112.2c-38.15,14.16-68.75,35.24-91.8,63.24h46.92
		C845.4,98.6,843.57,143.38,845.4,147.56z"/>
	<path d="M971.61,922.11c-6.7-8.13-19.62-9.37-33.3-4.53l0.93-0.98L830.27,789.06c23.5-11.09,52.08-13.91,80.41-3.01l59.16-36.72
		c-71.37-39.93-137.42-39.15-184.76-13.16l-20.36-29.68c-6.12,30.6-27.44,53.04-39.68,79.56l5.25,5.12
		c-23.23,42.75-25.62,99.96,2.91,160.11l51-53.04c-10.21-19.21-10.33-39.48-3.41-57.75l117.79,115.05
		c-3.42,9.55-2.99,18.65,2.16,24.91c10.03,12.18,34.02,8.98,53.59-7.13S981.64,934.28,971.61,922.11z"/>
	<path d="M829.09,371.95V112.88h-324h-0.35h-324v259.07C201,656,295.48,897.9,504.74,930.83v0.06c0.06-0.01,0.12-0.02,0.18-0.03
		c0.06,0.01,0.12,0.02,0.18,0.03L508,931C717.26,898.08,808,662,829.09,371.95z M504.91,755.45
		c-57.35-0.1-103.82-46.61-103.82-103.99c0-56.06,99.09-397.31,103.82-413.54c4.72,16.24,103.82,357.48,103.82,413.54
		C608.73,708.84,562.27,755.35,504.91,755.45z"/>
</g>
</svg>
