<?xml version="1.0" encoding="utf-8"?>
<!-- Generator: Adobe Illustrator 24.0.1, SVG Export Plug-In . SVG Version: 6.00 Build 0)  -->
<svg version="1.1" id="Layer_1" xmlns="http://www.w3.org/2000/svg" xmlns:xlink="http://www.w3.org/1999/xlink" x="0px" y="0px"
	 viewBox="0 0 1000 1000" style="enable-background:new 0 0 1000 1000;" xml:space="preserve">
<g>
	<path d="M888.34,910.73l0.13,0.13c0,0,2.04-239.35,3.86-272.94c7.78-66.45-67.42-139.78-154.69-146.08
		c-73.46-5.27-141.39,47.04-149.16,112.79c-3.79,33.03,19.28,78.79,56.88,86.95c45.16,10.92,74.16-12.08,79.95-47.56
		c5.33-32.67-25.79-91.52-91.52-50.9c0-28.28,44.99-59.19,101.86-58.23c63.69,1.09,87.4,80.59,89.33,94.41
		c5.53,38.56-7.26,215.87-7.26,280.08H479.79V792.6h130.59v-68.51H479.79V79.75c51.16-1.63,104.3,3.76,153.99,16V17.54h-504.9v78.08
		c50.19-16,102.39-16,155.02-16v644.34H119.75v68.51h164.09v116.65H106.2c-3.21-1.09-26.74,67.42-23.59,68.51H847.4
		c23.39-0.44,42.95-1.48,66.1,1.87C897.09,945.31,892.4,927.59,888.34,910.73z"/>
	<path d="M622.69,309.36c-27.1,31.36,9.75,81.1,14.75,85.17c9.07,7.4,37.88-7.6,33.32,0.15c-3.43,5.88-6.62,50.33-6.62,50.33H676
		l2.3-15.48l7.64-0.1l0.49,15.58h13.13l1.47-15.83l7.64,0.25l0.74,15.58h12.64l0.59-15.97h10.24l0.59,15.97h12.64l0.74-15.58
		l8.13-0.25l1.47,15.83h12.64l0.49-15.58l7.64,0.1l2.3,15.48h11.86c0,0-3.19-44.45-6.62-50.33c-4.56-7.74,24.26,7.2,33.32-0.15
		c5.05-4.12,41.85-53.8,14.75-85.17c-6.76-7.84,26.51-65.86,8.97-117.17c-20.63-60.18-81.54-69.58-107.9-70.81
		c0,0-2.25-0.15-6.08-0.15c-0.05,0-0.05,0-0.1,0s-0.05,0-0.1,0c-3.87,0-6.08,0.15-6.08,0.15c-26.31,1.23-87.27,10.63-107.85,70.81
		C596.13,243.55,629.45,301.57,622.69,309.36z M745.83,337c7.15-3.72,15.88-7.6,26.12-10.78c12.69-3.97,24.11-5.78,33.27-6.62
		c0.44-0.05,0.88,0,1.32,0.2c7.6,2.79,10.05,7.35,10.73,8.67c4.26,8.97-1.27,23.37-15.83,32.54c-0.39,0.24-0.78,0.39-1.23,0.44
		c-6.66,0.93-23.08,2.25-39.74-7.11c-6.91-3.87-12.01-8.58-15.53-12.54C743.63,340.28,744.02,337.93,745.83,337z M723.24,361.74
		c1.47-1.47,3.38-2.74,5.64-3.97c2.21,1.23,4.17,2.5,5.64,3.97c11.42,11.27,11.76,26.85,11.27,34.4c-0.05,1.03-1.32,1.42-1.96,0.64
		c-1.57-2.01-3.72-4.31-6.62-6.42c-3.09-2.25-6.03-3.68-8.33-4.51c-2.25,0.83-5.24,2.25-8.33,4.51c-2.89,2.11-5.05,4.41-6.62,6.42
		c-0.64,0.78-1.91,0.39-1.96-0.64C711.48,388.55,711.82,373.02,723.24,361.74z M638.71,328.47c0.64-1.37,3.09-5.88,10.73-8.67
		c0.44-0.15,0.88-0.2,1.32-0.2c9.21,0.83,20.63,2.65,33.27,6.62c10.24,3.19,18.96,7.06,26.12,10.78c1.76,0.93,2.16,3.28,0.83,4.8
		c-3.53,3.97-8.62,8.67-15.53,12.54c-16.61,9.36-33.08,8.04-39.74,7.11c-0.44-0.05-0.88-0.2-1.23-0.44
		C639.94,351.8,634.4,337.44,638.71,328.47z"/>
</g>
</svg>
