<?xml version="1.0" encoding="utf-8"?>
<!-- Generator: Adobe Illustrator 24.0.1, SVG Export Plug-In . SVG Version: 6.00 Build 0)  -->
<svg version="1.1" id="Layer_1" xmlns="http://www.w3.org/2000/svg" xmlns:xlink="http://www.w3.org/1999/xlink" x="0px" y="0px"
	 viewBox="0 0 1000 1000" style="enable-background:new 0 0 1000 1000;" xml:space="preserve">
<g>
	<path d="M968,583.59V478.84H798.97C804,658,693.71,732.03,538.2,734.36l0,165.9h103.26v-68.04c21.56-4.38,42.09-10.19,61.5-17.47
		l33.91,59.59l87.89-50.01l-33.69-59.21c15.34-12.39,29.41-26.34,42.1-41.91l58.32,34.82l51.85-86.78l-59.98-35.81
		c6.26-16.24,11.61-33.51,15.99-51.83H968z"/>
	<ellipse transform="matrix(0.7071 -0.7071 0.7071 0.7071 -349.8419 295.0285)" cx="181.21" cy="569.81" rx="22.12" ry="22.12"/>
	<rect x="328.76" y="779.14" transform="matrix(0.5 -0.866 0.866 0.5 -488.7583 749.5963)" width="152.07" height="37.87"/>
	<rect x="250.19" y="727.53" transform="matrix(0.74 -0.6726 0.6726 0.74 -417.2801 413.5394)" width="152.07" height="37.87"/>
	<path d="M322.72,634.23c-12.05-8.48-50.01,20.19-73.24,21.68c-2.26,0-7.52,0.77-9.64-2.02c-2.12-2.8,1.49-8.34,2.12-9.64
		c11.13-14.98,34.5-40.43,49.87-59.84c5.4-11.61-10.17-46.45-26.79-22.89c-14.74,20.96-71.84,80.32-90.63,114.58
		c-2.51,4.82,2.02,24.09,13.11,27.85c19.66,6.26,138.19-40.38,150.48-40.81C348.65,662.76,330.14,639.53,322.72,634.23z"/>
	<rect x="818.49" y="185.64" width="149.51" height="216.06"/>
	<rect x="753.1" y="217.06" width="54.69" height="152.07"/>
	<rect x="300.61" y="213.73" width="52.47" height="162.76"/>
	<rect x="31.6" y="242.4" width="54.25" height="104.03"/>
	<polygon points="288.03,509.2 288.03,108.79 96.6,108.79 96.6,402.04 184.34,509.2 	"/>
	<path d="M545.53,230.16c-0.69,3.93-2.01,7.72-3.9,11.23V360.4h198.56v-130.1h-25.44v65.14h-83.26V278.2l-75.41-0.14v-47.89H545.53z
		"/>
	<path d="M469.78,295.07l0,39.61c9.61,6.41,29.24,21.48,37.54,25.87c10.99,0,19.47,0.53,25.44,0v-95.31
		C520.52,284.61,500.52,295.6,469.78,295.07z"/>
	<path d="M381.41,255.75c10.98-10.72,23.83-19.34,37.92-25.44h-56.91v130.1l18.98,0.14V255.75z"/>
	<rect x="643.24" y="166.88" width="57.29" height="115.57"/>
	<rect x="566.49" y="127.94" width="54.3" height="141.06"/>
	<rect x="490.45" y="101.35" width="56.9" height="112.39"/>
	<rect x="414.85" y="140.28" width="54.98" height="70.66"/>
	<rect x="547.31" y="456.43" width="87.84" height="22.16"/>
	<path d="M528.13,443.62c-14.6,20.04-55.12,17.54-90.1,0v31.99h90.1V443.62z"/>
	<polygon points="380.06,562.2 528.13,696.1 528.13,488.53 438.03,488.53 	"/>
	<polygon points="547.31,696.1 695.57,562.82 635.15,490.31 547.31,490.31 	"/>
	<path d="M670.23,369.13H551.93v74.49h83.21C659.19,433.69,667.77,403.14,670.23,369.13z"/>
	<path d="M454,228c-17.35,2.41-41.36,18.16-60.25,35.56l-0.19,128.99c10.81,12.26,23.24,22.99,36.96,31.9
		c88.22,56.33,126.53-14.79,89.57-42.5c-12.34-9.25-33.82-21.3-62.21-41.68v-57.82c44.47,1.88,70.48-20.98,80.12-56.44L454,228z"/>
	<circle cx="483" cy="818" r="22"/>
</g>
</svg>
