<?xml version="1.0" encoding="utf-8"?>
<!-- Generator: Adobe Illustrator 24.3.0, SVG Export Plug-In . SVG Version: 6.00 Build 0)  -->
<svg version="1.1" id="Layer_3" xmlns="http://www.w3.org/2000/svg" xmlns:xlink="http://www.w3.org/1999/xlink" x="0px" y="0px"
	 viewBox="0 0 1000 1000" style="enable-background:new 0 0 1000 1000;" xml:space="preserve">
<path d="M998.09,559.47C976.96,386.55,896,325.8,804.82,284.2l83.95-23.43L724.77,147.54C767.9,113.9,775.5,74.52,756.01,30.4
	c-85.9,48.81-329.94,87.85-542.74,181.56c-25.38,13.67-33.19,25.38-54.66,48.81c0,0-115.19,41-144.47,70.28
	C4.37,346.67,0.47,432.57,0.47,432.57C36.93,502.63,75.06,542,115.65,536.05c-54.66-165.95,347.51-72.24,64.82,19.52
	c53.31,42.54,110.32,35.56,169.46,0c21.48,46.46,27.44,93.55,27.33,140.57c-38.12,41.82-93.59,71.84-158.14,95.66
	c65.37,19.22,126.89,31.98,175.71,23.43c19.67,31.7,14.6,67.95-7.81,107.38c59.95-8.35,102.93-37.21,127.88-87.85
	c22.48,52.9,22.81,101.38,0,145.25c50.27-18.13,96.29-56.79,137.64-117.92c16.92,28.32,20.51,66.43,17.57,109.33
	c55.97-18.03,96.8-83.06,124.95-187.42c27.99,25.04,37.9,62.27,39.05,105.42c71.48-45.35,73.57-125.71,46.86-220.61
	c30,6.7,54.14,28.85,76.14,56.62c21.9-55.62,11.27-124.97-29.28-206.94C955.31,518.09,977.75,534.07,998.09,559.47z M285.5,333.4
	l-52.71-23.82l105.42-35.14L285.5,333.4z"/>
</svg>
