<?xml version="1.0" encoding="utf-8"?>
<!-- Generator: Adobe Illustrator 24.0.1, SVG Export Plug-In . SVG Version: 6.00 Build 0)  -->
<svg version="1.1" id="Layer_4" xmlns="http://www.w3.org/2000/svg" xmlns:xlink="http://www.w3.org/1999/xlink" x="0px" y="0px"
	 viewBox="0 0 1000 1000" style="enable-background:new 0 0 1000 1000;" xml:space="preserve">
<g>
	<path d="M719.24,425.87c-38.77-113.1-153.25-130.78-202.8-133.08c0,0-4.24-0.28-11.42-0.28c-0.09,0-0.09,0-0.18,0
		c-0.09,0-0.09,0-0.18,0c-7.28,0-11.42,0.28-11.42,0.28c-49.46,2.3-164.03,19.99-202.71,133.08
		c-33.06,96.52,29.56,205.56,16.85,220.21c-50.93,58.94,18.33,152.42,27.72,160.07c17.04,13.91,71.19-14.28,62.63,0.28
		c-6.45,11.05-12.43,94.58-12.43,94.58h22.29l4.33-29.1l14.37-0.18L427.2,901h24.68l2.76-29.75l14.37,0.46l1.38,29.29h23.76
		l1.11-30.02h19.25l1.11,30.02h23.76l1.38-29.29l15.29-0.46L558.8,901h23.76l0.92-29.29l14.37,0.18l4.33,29.1h22.29
		c0,0-5.99-83.53-12.43-94.58c-8.57-14.55,45.59,13.54,62.63-0.28c9.49-7.74,78.65-101.12,27.72-160.07
		C689.67,631.34,752.21,522.29,719.24,425.87z M473.34,707.04c-6.63,7.46-16.21,16.3-29.19,23.58
		c-31.22,17.59-62.17,15.1-74.69,13.35c-0.83-0.09-1.66-0.37-2.3-0.83c-27.35-17.31-37.76-44.3-29.66-61.15
		c1.2-2.58,5.8-11.05,20.17-16.3c0.83-0.28,1.66-0.37,2.49-0.37c17.31,1.57,38.77,4.97,62.53,12.43
		c19.25,5.99,35.64,13.26,49.09,20.26C475.09,699.77,475.82,704.19,473.34,707.04z M538.73,809.18c-0.09,1.93-2.49,2.67-3.68,1.2
		c-2.95-3.78-7-8.1-12.43-12.06c-5.8-4.24-11.33-6.91-15.66-8.47c-4.24,1.57-9.85,4.24-15.66,8.47c-5.43,3.96-9.49,8.29-12.43,12.06
		c-1.2,1.47-3.59,0.74-3.68-1.2c-0.92-14.28-0.28-43.47,21.18-64.65c2.76-2.76,6.35-5.16,10.59-7.46c4.14,2.3,7.83,4.7,10.59,7.46
		C539,765.71,539.65,795,538.73,809.18z M643.35,743.14c-0.74,0.46-1.47,0.74-2.3,0.83c-12.53,1.75-43.38,4.24-74.69-13.35
		c-12.99-7.28-22.56-16.12-29.19-23.58c-2.49-2.85-1.75-7.28,1.66-9.03c13.45-7,29.84-14.28,49.09-20.26
		c23.85-7.46,45.31-10.87,62.53-12.43c0.83-0.09,1.66,0,2.49,0.37c14.28,5.25,18.88,13.81,20.17,16.3
		C681.11,698.85,670.7,725.92,643.35,743.14z"/>
	<path d="M987.77,508.85l-154.28-47.47c-3.56-26.34-10.22-51.69-19.61-75.68l110.25-118.65l-0.2,0.11l-157.14,35.98
		c-16.09-20.62-34.59-39.26-55.06-55.54l36.18-158.03l-0.11,0.2L629.47,199.73c-23.77-9.55-48.91-16.4-75.04-20.2L506.57,24v0.23
		l-47.78,155.29c-25.78,3.74-50.59,10.45-74.08,19.79L264.78,87.87l0.11,0.2l36.53,159.54c-19.73,15.68-37.61,33.57-53.29,53.3
		L87.31,264.09l0.2,0.11l112.1,120.64c-9,22.79-15.53,46.83-19.28,71.79l-158.6,48.8h0.23l158.19,48.67
		c3.04,20.79,8.02,40.94,14.74,60.29c15.45-5.5,40.08-14.49,68.67-25.01c-8.97-26.15-13.85-54.19-13.85-83.38
		c0-141.86,115-256.87,256.87-256.87s256.87,115,256.87,256.87c0,30.33-5.27,59.43-14.93,86.45l69.36,23.04
		c6.64-18.88,11.61-38.55,14.74-58.83L988,508.85H987.77z"/>
</g>
</svg>
