<?xml version="1.0" encoding="utf-8"?>
<!-- Generator: Adobe Illustrator 24.1.0, SVG Export Plug-In . SVG Version: 6.00 Build 0)  -->
<svg version="1.1" id="Layer_3" xmlns="http://www.w3.org/2000/svg" xmlns:xlink="http://www.w3.org/1999/xlink" x="0px" y="0px"
	 viewBox="0 0 1000 1000" style="enable-background:new 0 0 1000 1000;" xml:space="preserve">
<g>
	<path d="M847.04,500.14H788.4c-0.1-0.17-0.21-0.33-0.31-0.5c0,0-594.34-0.16-594.65,0c-0.1,0.17-0.21,0.33-0.31,0.5H134.5v44h13.08
		c-0.05,0.66-0.08,1.33-0.08,2c0,14.28,10.69,26.05,24.51,27.78c0.19,92.92,96.58,171.34,228.6,196.36L400,802.64
		c-24.12,6.51-52.39-0.82-83-16l-1,90c31.48-16.93,60.67-26.57,85-12l-2,37c-26,22-103,42-146-6h-16l4,86
		c109.61,0.05,385.82-0.16,499.54,0l4-86h-16c-43,48-120,28-146,6l-2-37c24.33-14.57,53.52-4.93,85,12l-1-90
		c-30.61,15.18-58.88,22.51-83,16l-0.61-32.36c132.02-25.02,228.41-103.44,228.6-196.36c13.81-1.72,24.51-13.5,24.51-27.78
		c0-0.67-0.03-1.34-0.08-2h13.08V500.14z"/>
	<path d="M757,489c-13.45-9.7-19.7-19.77-24-42c0-9,21-29,24-70c-3.54-28.38-20.01-54.76-44-80c21,94-68,84-38-18
		c11-59-28-109-72-159c42,203-160,138-78-84c-54.4,25.27-100,76-85,142c69,123-41,152-41,7c-9.89-9.33-76,60-71,112
		c25,114-48,138-66,64c-38.14,36.13-50.67,82.83-38,130L757,489z"/>
</g>
</svg>
