<?xml version="1.0" encoding="utf-8"?>
<!-- Generator: Adobe Illustrator 24.2.3, SVG Export Plug-In . SVG Version: 6.00 Build 0)  -->
<svg version="1.1" id="Layer_2" xmlns="http://www.w3.org/2000/svg" xmlns:xlink="http://www.w3.org/1999/xlink" x="0px" y="0px"
	 viewBox="0 0 1000 1000" style="enable-background:new 0 0 1000 1000;" xml:space="preserve">
<path d="M573.88,322.31C727.28,296.92,844.35,162.26,844.4-0.1h-82.98c0,0.13,0,0.26,0,0.39c0,115.64-80.01,212.35-187.08,236.62
	l1.27-237H463.15l-1.26,235.26C358.47,208.28,282.03,113.32,282.03,0.29c0-0.13,0-0.26,0-0.39h-83.74
	c0.05,159.75,113.38,292.68,263.14,321.1l-0.64,119.94H194.25L517.02,1000L839.8,440.94H573.25L573.88,322.31z M684.64,529.81
	L517.02,820.14L349.4,529.81H684.64z"/>
</svg>
