<?xml version="1.0" encoding="utf-8"?>
<!-- Generator: Adobe Illustrator 24.0.1, SVG Export Plug-In . SVG Version: 6.00 Build 0)  -->
<svg version="1.1" id="Layer_2" xmlns="http://www.w3.org/2000/svg" xmlns:xlink="http://www.w3.org/1999/xlink" x="0px" y="0px"
	 viewBox="0 0 1000 1000" style="enable-background:new 0 0 1000 1000;" xml:space="preserve">
<path d="M797.18,433.09c34.04,35.59,55.1,73.88,69.43,114c23.63-47.28-10.35-114.73-36.51-155.07l-80.44,1.69
	c17.94-36.19,52.93-115.66,56.11-190.44C810.07,102.33,717.71,7.83,631.8,7.83c-141.75,6.44-133.16,90.21-133.16,90.21
	c0,36.51,36.51,60.14,51.55,60.14c0,27.92-51.55,60.14-51.55,60.14c68.73-2.15,115.65-50.84,103.09-156.79
	c165.82-2.07,139.13,185.97,10.1,305.2l-5.62-1.11c-18.01-19.53-40.31-51.23-49.59-61.39c-68.24,7.21-130.54,36.75-130.54,36.75
	s-4.28,7.97-4.11,15.3c0.45,0.66,2.57,1.29,5.34,1.85c-48.44,22.46-89.16,49.27-89.16,49.27s-4.12,10.15-3.62,18.99
	c1.34,1.97,15.08,2.28,20.96,2.32c-40.2,29.7-71.63,60.22-71.63,60.22s-2.15,10.74,0,19.33c2.15,2.15,23.63-2.15,23.63-2.15
	s98.8-68.73,107.39-64.43c7.27,3.64,11.47,54.96,12.58,70.64c0,0-23.32,2.38-25.47,4.53c-2.15,2.15,0.41,2.9,1.16,7.92
	c-50.2-9.98-235.25-7.08-273.93,86.58C105,670.01,152.85,821.84,253.79,879.83c-15.03-23.63-51.55-143.9-12.89-186.86
	c32.22,12.89,15.03,131.01,0,148.2c88.06-25.77,103.09-236.26,70.88-257.73c32.48-3.9,69.32-3.74,100.75,0.53
	c7.94,46.9,10.94,93.97,25.97,106.85c17.64,15.12,87.73-24,147.23-47.07c23.51,31.14,44.32,84.52,46.07,126.53
	c-37-13.76-202.47,96.27-170.76,184.37c5.09-22.68,91.84-107.48,121.78-88.59c-12.08,57.59-132.84,99.35-161.29,101.07
	c108.28,48.66,290.72,9.52,306.92-52.94c26.53-102.35-47.74-239.22-90.25-291.16c2.19-5.23,4.34-5.23,6.49-9.53
	c0-2.15,2.19-6.01,2.19-6.01c25.8-15.13,55.2-25.94,88.02-32.65c34.04,40.42,58.69,89.74,73.02,135.31
	c23.63-53.69-10.35-130.3-36.51-176.12l-62.61-1.61c17.23-13.22,25.05-17.87,54.47-26.89c37.74,36.99,66.98,83.73,85.6,127.73
	c18.4-55.7-22.73-128.72-53.14-171.83l-43.96,3.08C762.17,446.51,785.5,435.66,797.18,433.09z M436.75,396.05
	c19.74-7.44,36.17-12.62,38.96-10.49c5.99,4.58,7.08,41.9,7.27,57.73C467.86,429.83,449.84,409.26,436.75,396.05z M533.42,387.55
	c-8.81-12.93-17.78-27.67-25.28-39.11c14.64-2.16,26.69-3.2,29.16-1.26C542.32,351.12,536.95,374.4,533.42,387.55z"/>
</svg>
