<?xml version="1.0" encoding="utf-8"?>
<!-- Generator: Adobe Illustrator 24.0.1, SVG Export Plug-In . SVG Version: 6.00 Build 0)  -->
<svg version="1.1" id="Layer_1" xmlns="http://www.w3.org/2000/svg" xmlns:xlink="http://www.w3.org/1999/xlink" x="0px" y="0px"
	 viewBox="0 0 1000 1000" style="enable-background:new 0 0 1000 1000;" xml:space="preserve">
<g>
	<path d="M374,578.82c2.16,0,4.01,0.35,5.48,0.43h0.73l-0.52,64.49l68.85,0v-126.4l-11.05,0.15c-95,0-203-59-200.26-175.28
		C238.5,240.5,327.5,174.5,439.5,170.5l8.4-0.53V40.6h-67.69v62.9c-20.15,2.96-39.41,8.38-57.53,15.88l-31.01-53.35L234,99.61
		l31.78,53.02c-15.62,12.24-29.66,26.31-41.82,41.84l-54.5-31.27l-33.37,57.76l54.16,31.58c-7.32,17.98-12.5,36.96-15.24,56.57
		h-61.93v66.74h62.28c2.92,18.89,8.17,36.93,15.29,53.91l-53.22,33.51l35.01,56.81l52.06-32.77c12.95,16.63,27.66,31.42,43.31,44.02
		L235.6,584.6l57.2,34.36l32.15-53.14C341.56,572.81,358.17,577.26,374,578.82z"/>
	<path d="M852.38,869.86L701.21,535.91l-3.01,1.53c66.23-44.07,105.13-116.42,101.04-195.4C793.11,224.24,711.91,124.99,562.68,112
		l-26.33-0.57V40.6h-65.7v129.71l4.85,0.19c159,5,225,52,226.97,165.59C700.5,457.5,660.5,511.5,475.63,517.39l-4.98,0.47v186.14
		H367.87c-18.22,0-29.7-3.02-29.61-8.63v66.65c0-5.83,11.4-8.63,29.61-8.63h102.78v49.04H367.87c-18.22,0-29.7-3.02-29.61-8.63
		v66.65c0-5.83,11.4-8.63,29.61-8.63H469.7v41.44c-8.07,18.65-41.83,29.48-86.72,32.03h-55.82V959h355.66v-34.53H620.4
		c-37.64,0.6-73.39-10.19-84.05-31.43V851.6h102.78c18.22,0,29.66,3.02,29.61,8.63v-67.3c0,5.78-11.4,8.63-29.61,8.63H536.35v-48.78
		h102.78c18.22,0,29.66,3.02,29.61,8.63v-66.65c0,5.83-11.4,8.63-29.61,8.63H536.35V581.5c40.09,1.09,77.16-5.34,110.08-17.67
		l-1.21,0.61l139,334.55l3.32,53.36l99.03-42.78L852.38,869.86z"/>
	<path d="M357.69,260.08c-15.86,46.3,14.18,98.61,8.08,105.63c-24.43,28.27,8.79,73.11,13.3,76.78c8.17,6.67,34.15-6.85,30.04,0.13
		c-3.09,5.3-5.96,45.37-5.96,45.37h10.69l2.08-13.96l6.89-0.09l0.44,14.05h11.84l1.33-14.27l6.89,0.22l0.66,14.05h11.4l0.53-14.4
		h9.23l0.53,14.4h11.4l0.66-14.05l7.33-0.22l1.33,14.27h11.4l0.44-14.05l6.89,0.09l2.08,13.96h10.69c0,0-2.87-40.07-5.96-45.37
		c-4.11-6.98,21.87,6.49,30.04-0.13c4.55-3.71,37.73-48.51,13.3-76.78c-6.1-7.07,23.9-59.38,8.08-105.63
		c-18.6-54.25-73.51-62.73-97.28-63.84c0,0-2.03-0.13-5.48-0.13c-0.04,0-0.04,0-0.09,0s-0.04,0-0.09,0c-3.49,0-5.48,0.13-5.48,0.13
		C431.2,197.35,376.24,205.83,357.69,260.08z M476.79,390.63c6.45-3.36,14.31-6.85,23.55-9.72c11.44-3.58,21.74-5.21,30-5.96
		c0.4-0.04,0.8,0,1.19,0.18c6.85,2.52,9.06,6.63,9.68,7.82c3.84,8.08-1.15,21.07-14.27,29.33c-0.35,0.22-0.71,0.35-1.1,0.4
		c-6.01,0.84-20.81,2.03-35.83-6.41c-6.23-3.49-10.82-7.73-14-11.31C474.81,393.59,475.16,391.47,476.79,390.63z M456.43,412.94
		c1.33-1.33,3.05-2.47,5.08-3.58c1.99,1.1,3.76,2.25,5.08,3.58c10.29,10.16,10.6,24.21,10.16,31.01c-0.04,0.93-1.19,1.28-1.77,0.57
		c-1.41-1.81-3.36-3.89-5.96-5.79c-2.78-2.03-5.43-3.31-7.51-4.06c-2.03,0.75-4.73,2.03-7.51,4.06c-2.61,1.9-4.55,3.98-5.96,5.79
		c-0.57,0.71-1.72,0.35-1.77-0.57C445.82,437.11,446.13,423.1,456.43,412.94z M380.22,382.94c0.57-1.24,2.78-5.3,9.67-7.82
		c0.4-0.13,0.8-0.18,1.19-0.18c8.31,0.75,18.6,2.39,30,5.96c9.23,2.87,17.1,6.36,23.55,9.72c1.59,0.84,1.94,2.96,0.75,4.33
		c-3.18,3.58-7.78,7.82-14,11.31c-14.98,8.44-29.82,7.25-35.83,6.41c-0.4-0.04-0.8-0.18-1.1-0.4
		C381.32,403.97,376.33,391.03,380.22,382.94z"/>
</g>
</svg>
