<?xml version="1.0" encoding="utf-8"?>
<!-- Generator: Adobe Illustrator 24.0.1, SVG Export Plug-In . SVG Version: 6.00 Build 0)  -->
<svg version="1.1" id="Layer_3_copy" xmlns="http://www.w3.org/2000/svg" xmlns:xlink="http://www.w3.org/1999/xlink" x="0px"
	 y="0px" viewBox="0 0 1000 1000" style="enable-background:new 0 0 1000 1000;" xml:space="preserve">
<g>
	<path d="M391.92,511.98c-1.06,37.16,19.67,71.82,55.73,94.75c7.85-10.53,8.04-23.87,5.57-42.73
		C425.81,547.97,411.07,531.55,391.92,511.98z"/>
	<path d="M564.45,564c-2.47,18.85-2.27,32.2,5.57,42.73c36.06-22.92,56.79-57.58,55.73-94.75
		C606.61,531.55,591.87,547.97,564.45,564z"/>
	<path d="M815.76,219.24C734.36,137.83,626.12,93,511,93c-115.12,0-223.36,44.83-304.76,126.24C124.83,300.64,80,408.88,80,524
		c0,115.12,44.83,223.36,126.24,304.76C287.64,910.17,395.88,955,511,955c115.12,0,223.36-44.83,304.76-126.24S942,639.12,942,524
		C942,408.88,897.17,300.64,815.76,219.24z M555.66,102.77c-88,52.38-157.46,132.64-196.24,228.58
		c-35.91-14.92-85.7-36.1-114.96-56.69l-12.81-9.02l1.13,15.63c3.74,51.88,14.93,95.56,33.27,129.85
		c15.02,28.08,35.19,50.55,60.12,67.1c-0.61,9.76-0.93,19.6-0.93,29.52c0,1.12,0.03,2.24,0.04,3.36
		c-20.14,27.24-42.7,53.12-67.42,77.23L235.62,610l29.63-9.26l16.95-5.3l-5.43,39.38l-1.68,12.21l11.59-4.21l26.8-9.75l-5.04,31.47
		l-2.79,17.46l14.43-10.22l27.75-19.66c1.15,3.58,2.34,7.13,3.58,10.67l0.9,27.77l0.37,11.6l10.38-5.19l1.45-0.73
		c8.08,18.47,17.31,36.32,27.61,53.46l-0.2,2.73l1.49-0.57c9.87,16.25,20.71,31.84,32.41,46.72l7.43,47.58l0.45,2.91l2.33,1.81
		c1.33,1.04,32.37,24.85,69.93,27.74c29.77,23.32,62.41,43.13,97.31,58.83c68.65-15.25,131.02-47.17,182.66-91.27
		c-76.6,65.58-173,101.38-274.92,101.38c-113.14,0-219.51-44.06-299.51-124.06S87.43,637.14,87.43,524
		c0-113.14,44.06-219.51,124.06-299.51S397.86,100.43,511,100.43 M666.3,485.65c-0.24,0.11-0.46,0.23-0.7,0.35
		c25.34,39.04,54.69,74.57,87.63,106.97l-26.1-8.16l0.2,1.46l-0.2-0.06l6.83,49.51l-38.47-13.99l0.24,1.48l-0.24-0.09l6.78,42.38
		l-41.94-29.71l-1.76,54.5l-45.71-22.85l0.1,1.44l-0.1-0.05l5.17,72.4l-22.75-8.75L577.7,844.98c0,0-31.64,24.61-68.56,26.37v0.05
		c-36.92-1.76-68.56-26.37-68.56-26.37L423,732.53l-22.75,8.75l5.17-72.4l-0.1,0.05l0.1-1.45l-45.71,22.85l-1.76-54.5l-42.19,29.88
		l7.03-43.95l-38.67,14.06l7.03-50.98l-28.13,8.79c22.56-22,43.39-45.49,62.48-70.52c0.01,0.45,0.02,0.9,0.04,1.34
		c9.48-12.43,18.56-25.21,27.14-38.42c-0.24-0.11-0.46-0.24-0.7-0.35c0.23-0.35,0.47-0.69,0.7-1.05
		c-70.76-33.21-105.33-104.26-112.51-203.92c29.98,21.1,79.59,42.19,116.51,57.53c-0.15,0.4-0.32,0.8-0.47,1.2
		c21.75,9.04,39.17,16.1,45.69,20.02c0,0,14.06-14.06,107.23-12.31v-0.05c93.17-1.76,107.23,12.31,107.23,12.31
		c17.56-10.54,114.1-43.89,161.61-77.27c-7.42,98.88-41.98,169.39-112.39,202.44C665.83,484.96,666.07,485.3,666.3,485.65z"/>
</g>
</svg>
