<?xml version="1.0" encoding="utf-8"?>
<!-- Generator: Adobe Illustrator 24.1.0, SVG Export Plug-In . SVG Version: 6.00 Build 0)  -->
<svg version="1.1" id="Layer_2" xmlns="http://www.w3.org/2000/svg" xmlns:xlink="http://www.w3.org/1999/xlink" x="0px" y="0px"
	 viewBox="0 0 1000 1000" style="enable-background:new 0 0 1000 1000;" xml:space="preserve">
<g>
	<path d="M372.28,892.22c8.07-4.84,14.52-8.07,20.97-16.13l-12.91-43.56c-82.18,12.05-153.79,37.35-216.18,74.21
		C243.75,894.37,318.23,885.5,372.28,892.22z"/>
	<path d="M320.66,622.8c-13.66,76.53-17.21,146.64-9.68,209.72l64.53-14.52C357.76,772.83,335.51,697.24,320.66,622.8z"/>
	<path d="M293.23,811.55l-14.52-54.85c-72.07,12.05-141.68,28.81-208.11,51.62C147.16,803.82,221.53,804.52,293.23,811.55z"/>
	<path d="M267.42,572.79c-24.91,55.99-43.04,119.98-46.78,183.91c20.97-4.84,40.33-8.07,54.85-9.68
		C268.14,693.53,267.86,631.44,267.42,572.79z"/>
	<path d="M209.79,682.62c-58.65-2.09-116.12-0.08-172.06,7.2c60.97,8.75,119.39,21.24,174.68,38.29L209.79,682.62z"/>
	<path d="M208.81,674.48c2.81-43.28,12.56-92.18,21.63-138.41c-28.6,40.06-53.14,87.5-66.35,137.22
		C181.37,672.85,197.12,673.42,208.81,674.48z"/>
	<path d="M159.45,607.74c-48.95-10.87-97.54-18.12-145.68-20.7c49.87,16.83,97,36.41,140.8,59.33L159.45,607.74z"/>
	<path d="M159.89,600.75c9.09-35.92,24.88-75.49,39.69-112.92c-30.25,29.21-58.25,65.25-77.08,104.96
		C137.09,595.11,150.24,598.04,159.89,600.75z"/>
	<path d="M129.95,535.8c-37.21-15.43-74.64-27.94-112.36-36.69c37.1,20.27,71.66,42.33,103.12,66.57L129.95,535.8z"/>
	<path d="M102.8,518.83c11.22,3.87,21.21,8.02,28.47,11.51c12.2-27.15,30.21-56.25,47.15-83.8
		C150.41,465.43,123.23,490.04,102.8,518.83z"/>
	<path d="M102.21,495.77l11.97-22.58c-27.52-18.05-55.67-33.78-84.62-46.55C56.26,448.56,80.64,471.52,102.21,495.77z"/>
	<path d="M94.97,455.43c8.42,4.81,15.81,9.66,21.1,13.57c13.93-19.94,32.81-40.56,50.6-60.1
		C141.31,419.81,115.75,435.43,94.97,455.43z"/>
	<path d="M114.49,417.87c-23.52-20.1-47.9-38.12-73.38-53.47c22.29,23.61,42.3,47.93,59.53,73.1L114.49,417.87z"/>
	<path d="M171.08,364.16c-24.94,7.15-50.63,18.68-72.4,34.87c7.28,5.49,13.59,10.89,18.07,15.16
		C132.11,397.25,152.17,380.27,171.08,364.16z"/>
	<path d="M520.37,751.86h12.39c5.32,0,9.68-4.36,9.68-9.68v-6.45c0-5.32-4.36-9.68-9.68-9.68v-4.84c5.32,0,9.68-4.36,9.68-9.68
		v-12.91c0-4.19-2.71-7.77-6.45-9.11v-10.25h9.68c5.32,0,9.68-4.36,9.68-9.68v-9.68c0-5.32-4.36-9.68-9.68-9.68h-3.19v-2.19
		C646.36,629.68,724.74,547,724.74,447.76c0-0.27-0.01-0.54-0.01-0.81h16.95v-24.2H256.09v24.2h16.95c0,0.27-0.01,0.54-0.01,0.81
		c0,99.25,78.42,181.95,182.33,200.28v2.18h-3.26c-5.32,0-9.68,4.36-9.68,9.68v9.68c0,5.32,4.36,9.68,9.68,9.68h9.68v10.25
		c-3.75,1.34-6.45,4.92-6.45,9.11v12.91c0,5.32,4.36,9.68,9.68,9.68v4.84c-5.32,0-9.68,4.36-9.68,9.68v6.45
		c0,5.32,4.36,9.68,9.68,9.68h12.39C452.77,868.8,375,916.43,298.84,926.09V939h200.04h200.04v-12.91
		C622.78,916.43,545.01,868.8,520.37,751.86z"/>
	<path d="M604.52,876.11c6.45,8.07,12.91,11.29,20.97,16.13c54.05-6.72,128.53,2.15,208.11,14.52
		c-62.39-36.86-134-62.16-216.18-74.21L604.52,876.11z"/>
	<path d="M686.8,832.55c7.53-63.08,3.98-133.19-9.68-209.72c-14.85,74.44-37.1,150.03-54.85,195.2L686.8,832.55z"/>
	<path d="M704.55,811.58c71.7-7.03,146.07-7.73,222.63-3.23c-66.43-22.81-136.04-39.57-208.11-51.62L704.55,811.58z"/>
	<path d="M722.29,747.05c14.52,1.61,33.88,4.84,54.85,9.68c-3.74-63.94-21.87-127.92-46.78-183.91
		C729.92,631.47,729.64,693.55,722.29,747.05z"/>
	<path d="M787.98,682.64l-2.62,45.5c55.3-17.05,113.71-29.54,174.68-38.29C904.1,682.56,846.64,680.55,787.98,682.64z"/>
	<path d="M833.69,673.32c-13.21-49.71-37.76-97.15-66.35-137.22c9.07,46.23,18.82,95.13,21.63,138.41
		C800.65,673.45,816.41,672.88,833.69,673.32z"/>
	<path d="M843.2,646.39c43.8-22.92,90.94-42.5,140.8-59.33c-48.13,2.58-96.72,9.82-145.68,20.7L843.2,646.39z"/>
	<path d="M875.27,592.82c-18.83-39.71-46.82-75.75-77.08-104.96c14.81,37.43,30.6,77,39.69,112.92
		C847.54,598.07,860.68,595.14,875.27,592.82z"/>
	<path d="M877.07,565.71c31.46-24.24,66.02-46.3,103.12-66.57c-37.72,8.75-75.15,21.26-112.36,36.69L877.07,565.71z"/>
	<path d="M894.98,518.86c-20.43-28.79-47.61-53.4-75.61-72.29c16.93,27.54,34.95,56.65,47.15,83.8
		C873.77,526.87,883.76,522.72,894.98,518.86z"/>
	<path d="M895.57,495.8c21.57-24.25,45.95-47.21,72.65-69.13c-28.95,12.76-57.09,28.5-84.62,46.55L895.57,495.8z"/>
	<path d="M881.71,469.03c5.3-3.91,12.69-8.76,21.1-13.57c-20.78-20-46.34-35.62-71.7-46.53
		C848.9,428.47,867.78,449.09,881.71,469.03z"/>
	<path d="M897.13,437.53c17.23-25.18,37.24-49.49,59.53-73.1c-25.48,15.34-49.86,33.37-73.38,53.47L897.13,437.53z"/>
	<path d="M881.03,414.21c4.47-4.27,10.79-9.67,18.07-15.16c-21.76-16.18-47.45-27.71-72.4-34.87
		C845.61,380.29,865.67,397.28,881.03,414.21z"/>
	<polygon points="275.49,364.68 275.49,414.69 328.72,414.69 	"/>
	<polygon points="381.96,335.64 375.51,414.69 431.97,414.69 	"/>
	<polygon points="535.22,414.69 498.11,269.5 461.01,414.69 498.11,414.69 	"/>
	<polygon points="722.56,364.2 669.32,414.21 722.56,414.21 	"/>
	<polygon points="616.09,335.16 566.07,414.21 622.54,414.21 	"/>
</g>
</svg>
