<?xml version="1.0" encoding="utf-8"?>
<!-- Generator: Adobe Illustrator 24.1.0, SVG Export Plug-In . SVG Version: 6.00 Build 0)  -->
<svg version="1.1" id="Layer_3" xmlns="http://www.w3.org/2000/svg" xmlns:xlink="http://www.w3.org/1999/xlink" x="0px" y="0px"
	 viewBox="0 0 1000 1000" style="enable-background:new 0 0 1000 1000;" xml:space="preserve">
<path d="M965,182.96c-102,46.71-202.75,81.9-299.68,84.06l-32.89,10.96c-1.52-16.38-10.99-29.01-27.41-38.37
	c0.98,62.4-127.91,60.3-199.18,62.13c-40.2,5.48-42.03-3.65-38.37-34.72c-45.68,23.76-63.36,58.33-56.65,82.23
	c-63.93,5.34-137.05,27.41-140.7,32.89c-7.31-7.31-45.57,4.26-73.09,12.79c-11.67,4.84-26.32,4.52-42.03,0
	c1.15,20.45,3.97,37.78,12.79,43.86c5.26,54.54,24.75,97.87,65.78,124.26c-14.62-49.34,10.96-42.03,49.34-20.1
	c0-36.55,14.62-40.2,47.51-5.48c5.48-31.06,23.76-31.06,56.65,10.96v-31.06c35.94-12.87,87.71-7.31,93.19,18.27
	c1.61,49.43-35.66,77.85-78.57,102.33c-16.48,4.98-40.38-10.1-65.78-29.24c27.41,58.47-9.14,84.06-62.13,23.76
	c3.16,84.86,52.67,118.87,113.29,140.7c-1.83-85.88,93.19-116.95,166.29-120.6c7.31-34.72,21.93-51.16,40.2-52.99
	c22.14,2,31.06,7.31,31.06,60.3c0,52.99-140.7,131.57-140.7,131.57c-54.9,53.39-85.21,111.93-100.5,173.59l469.62-5.48
	c7.31-51.16-20.1-148.01-27.41-182.73c-5.48-38.37,12.79-49.34,43.86-29.24c-9.13-38.72-15.13-73.53-18.27-102.33
	c-8.21-39.88,5.48-45.68,52.99-16.45c-7.55-43.73-32.78-87.62-63.96-131.57c1.86-24.52,27-18.77,56.65-5.48
	c-16.45-42.03-65.78-67.61-71.27-76.75c2.37-17.81,16.45-27.41,42.03-29.24c-10.06-14.07-6.98-29.18-3.65-42.03
	C840.06,331.23,901.92,270.25,965,182.96z M111.21,431.98c-6.35-1.81-11.75-7.02-16.55-14.35c16.44-3.77,32.57-7.24,41.84-3.94
	C130.24,421.02,122.92,427.74,111.21,431.98z M385.74,391.27c-16.67,1.02-32.81,1.68-40.2-3.65c8.59-13.92,16.17-19.08,36.55-25.58
	h31.06C406.5,372.8,399.01,383.23,385.74,391.27z"/>
</svg>
