<?xml version="1.0" encoding="utf-8"?>
<!-- Generator: Adobe Illustrator 24.0.1, SVG Export Plug-In . SVG Version: 6.00 Build 0)  -->
<svg version="1.1" id="Layer_2" xmlns="http://www.w3.org/2000/svg" xmlns:xlink="http://www.w3.org/1999/xlink" x="0px" y="0px"
	 viewBox="0 0 1000 1000" style="enable-background:new 0 0 1000 1000;" xml:space="preserve">
<g>
	<path d="M888.52,452.63c-4.77-31.3-13.35-61.3-25.16-89.61l64.95-42.43l-55.4-92.74l-66.51,39.72
		c-19.77-24.49-42.37-46.59-67.22-65.82l38.49-66l-93.43-54.23l-38.56,66.09c-30.25-12.45-62.16-21.26-95.11-25.87l0.66-76.5
		l-108.04-0.85l-0.64,77.8c-31.45,4.76-61.86,13.49-90.71,25.68l-37.83-66.19l-93.64,53.86l39.41,67.02
		c-25.93,20.54-49.4,44.28-69.76,70.6l2.62-5.35L126,228.75l-54.6,93.22l67.61,37.11c-12.93,29.56-22.41,60.92-27.88,93.55H35.6V557
		h175.55l0.32-74.95c17-146.86,142.3-262.18,289.96-261.01c147.95,1.71,271.21,113.87,286.82,261.01V557H964V452.63H888.52z"/>
	<path d="M701.64,696.06c32.62,1.96,65.68,4.24,99.46,6.8v-1.17v-92.15c-46.23,3.46-91.16,6.41-135.48,8.67
		c-6.69-15.4-12.88-30.28-18.68-44.77c33.93,2.28,68.33,5.2,103.64,8.69v-92.95c-44.88,4.54-88.27,8.19-131.1,10.72
		c-14.81-42.47-27.51-83.49-41.26-127.31h80.47v-70.06H335.17v70.06h83.71l0.85,0.05c-13.82,44.02-26.57,85.24-41.46,127.94
		c-41.97-2.48-84.95-6.42-129.73-12.04v94.28c35.23-4.25,69.33-7.5,102.72-9.87c-5.97,14.94-12.36,30.31-19.28,46.22
		c-44-2.33-88.99-5.75-135.6-10.44v93.91c34.39-3.4,67.9-6.1,100.81-8.19c-27.95,57.23-63.03,122.48-108.93,200.68H129.3v60.07
		h249.38v-60.07h-68.73c23.52-71.21,45.67-139.34,67.64-204.62c81.24-2.82,159.87-2.03,239.9,1.26
		c21.32,64.91,42.31,132.65,64.26,203.36h-67.19v60.02h254.1v-60.07h-58.9C764.3,817.62,729.46,752.88,701.64,696.06z
		 M495.84,376.84c19.37,40.62,37.34,82.66,54.44,126.14c-35.31,1.03-70.55,1.18-106.24,0.32
		C460.64,459.75,477.75,417.61,495.84,376.84z M401,621.97c6.18-17.78,12.38-35.34,18.62-52.69c52.61-1.91,104.02-1.67,155.83,0.34
		c6.18,17,12.27,34.21,18.3,51.64C529.66,623.4,466.1,623.82,401,621.97z"/>
	<path d="M582.88,751.16c-15.57-45.42-61.55-52.53-81.45-53.45c0,0-1.7-0.11-4.59-0.11c-0.04,0-0.04,0-0.07,0s-0.04,0-0.07,0
		c-2.92,0-4.59,0.11-4.59,0.11c-19.86,0.92-65.88,8.03-81.42,53.45c-13.28,38.77,11.87,82.56,6.77,88.45
		c-20.46,23.67,7.36,61.22,11.13,64.29c6.84,5.59,28.59-5.73,25.15,0.11c-2.59,4.44-4.99,37.99-4.99,37.99h8.95l1.74-11.69
		l5.77-0.07l0.37,11.76h9.91l1.11-11.95l5.77,0.18l0.55,11.76h9.54l0.44-12.06h7.73L501.1,942h9.54l0.55-11.76l6.14-0.18l1.11,11.95
		h9.54l0.37-11.76l5.77,0.07l1.74,11.69h8.95c0,0-2.4-33.55-4.99-37.99c-3.44-5.84,18.31,5.44,25.15-0.11
		c3.81-3.11,31.59-40.62,11.13-64.29C571.01,833.69,596.13,789.89,582.88,751.16z M484.12,864.1c-2.66,3-6.51,6.55-11.73,9.47
		c-12.54,7.07-24.97,6.07-30,5.36c-0.33-0.04-0.67-0.15-0.92-0.33c-10.99-6.95-15.17-17.79-11.91-24.56
		c0.48-1.04,2.33-4.44,8.1-6.55c0.33-0.11,0.67-0.15,1-0.15c6.95,0.63,15.57,2,25.12,4.99c7.73,2.4,14.32,5.33,19.72,8.14
		C484.82,861.17,485.12,862.95,484.12,864.1z M510.38,905.12c-0.04,0.78-1,1.07-1.48,0.48c-1.18-1.52-2.81-3.26-4.99-4.85
		c-2.33-1.7-4.55-2.77-6.29-3.4c-1.7,0.63-3.96,1.7-6.29,3.4c-2.18,1.59-3.81,3.33-4.99,4.85c-0.48,0.59-1.44,0.3-1.48-0.48
		c-0.37-5.73-0.11-17.46,8.51-25.97c1.11-1.11,2.55-2.07,4.25-3c1.66,0.92,3.14,1.89,4.25,3
		C510.49,887.66,510.75,899.42,510.38,905.12z M552.4,878.6c-0.3,0.18-0.59,0.3-0.92,0.33c-5.03,0.7-17.42,1.7-30-5.36
		c-5.22-2.92-9.06-6.47-11.73-9.47c-1-1.15-0.7-2.92,0.67-3.63c5.4-2.81,11.99-5.73,19.72-8.14c9.58-3,18.2-4.36,25.12-4.99
		c0.33-0.04,0.67,0,1,0.15c5.73,2.11,7.58,5.55,8.1,6.55C567.57,860.8,563.39,871.68,552.4,878.6z"/>
</g>
</svg>
