<?xml version="1.0" encoding="utf-8"?>
<!-- Generator: Adobe Illustrator 24.2.0, SVG Export Plug-In . SVG Version: 6.00 Build 0)  -->
<svg version="1.1" id="Layer_2_copy_2" xmlns="http://www.w3.org/2000/svg" xmlns:xlink="http://www.w3.org/1999/xlink" x="0px"
	 y="0px" viewBox="0 0 1000 1000" style="enable-background:new 0 0 1000 1000;" xml:space="preserve">
<g>
	<path d="M408.9,217.65c4.24,3.18,72.68,50.52,80.52,50.85c0,0-41.32-70.98-54.03-82.64C414.2,175.28,396.19,196.46,408.9,217.65z"
		/>
	<path d="M501.29,159.29c0.84,6.32,17.86,105.17,24.15,112.4c0,0,25.87-93.82,25.14-114.49
		C541.85,129.87,508.7,130.94,501.29,159.29z"/>
	<path d="M620.88,185.6c-3.13,4.28-49.65,73.27-49.89,81.12c0,0,70.49-42.16,81.99-55.01C663.32,190.39,641.92,172.64,620.88,185.6z
		"/>
	<path d="M417.33,341.99c7.47,0.68,90.3-15.11,96.46-20.51c0,0-77.34-25.43-98.7-21.93C391.66,307,392.88,335.55,417.33,341.99z"/>
	<path d="M313.55,318.3c0,36.02,42.38,43.44,42.38,43.44c29.27,0.92,53.66-1.91,63.57-15.89c-28.61,10.59-43.44-51.91,2.12-52.97
		c-10.15-9.3-27.36-13.25-47.68-14.83C373.94,278.04,313.55,282.28,313.55,318.3z"/>
	<path d="M406.35,221.46c-25.98-12.44,8.25-64.24,38.53-33.89c-0.06-13.13-8.45-27.49-20.51-42.4c0,0-42.13-38.35-67.39-14.32
		c-25.26,24.02-2.99,57.87-2.99,57.87C372.32,209.28,390.12,224.03,406.35,221.46z"/>
	<path d="M497.97,161.67c-10.65-31.93,56.81-46.84,56.81,3.64c10.24-11.02,14.9-29.97,17.12-52.43c0,0-3.03-66.97-41.7-67.85
		c-38.67-0.88-47.69,45.87-47.69,45.87C480.79,123.28,483.21,150.36,497.97,161.67z"/>
	<path d="M620.18,185.78c10.96-25.66,61.43,3.08,33.56,34.17c12.49-1.03,25.88-10.09,39.67-22.68c0,0,35.08-42.96,11.36-65.24
		c-23.72-22.27-55.19,1.46-55.19,1.46C630.62,152.47,617.19,170.52,620.18,185.78z"/>
	<path d="M619.71,911.51c0.01,0.03,0.02,0.06,0.03,0.09C619.8,911.64,619.78,911.59,619.71,911.51z"/>
	<path d="M570.5,429.33c18.53,12.31,36.87-4.3,27.02-24.97c-3.87-5.6-62.36-54.92-69.53-56.26
		C527.98,348.1,555.79,416.29,570.5,429.33z"/>
	<path d="M629.3,480.53c20.49-14.64,6.19-43.57,6.19-43.57c-12.27-18.27-22.55-35.64-34.83-36.02
		c14.83,15.89-6.36,52.97-36.02,28.61c-0.85,9.99,7.39,17.34,15.36,30.41C580.01,459.96,608.81,495.17,629.3,480.53z"/>
	<path d="M648.73,438.1l-6.21-3.22c19.69,57.67-35.77,76.73-72.52,22.55l-28.12,381.67c30.14,27.78,76,70.14,77.83,72.4
		c-6.39-22.33-27.52-86.81-29.64-104.79c31.15,28.5,71.18,54.22,122.9,76.28c-40.41-96.21-65.87-185.28-88.74-271.55
		c9.54,12.32,57.22,36.94,78.14,46.94c0.87-2.2-41.32-80.52-41.32-80.52c12.9,4.21,30.91,10.09,51.91,16.95
		C700.91,567.27,669.27,476.73,648.73,438.1z"/>
	<path d="M401.58,438.8c-6.4,28.98-14.94,49.49-23.4,67.02l16.95-7.42c-11.43,40.21-33.17,93.64-56.15,149.38
		c16.81-1.93,30.47-5.37,36.02-12.71c-12.59,46.29-35.13,121.81-73.1,212.95c22.43-23.25,42.82-44.38,58.27-60.39
		c-10.26,58.41-33.35,115.93-66.75,172.69c76.82-42.75,146.81-86.6,206.03-132.21l-37.43-423.74
		C448.81,412.04,425.86,425.25,401.58,438.8z"/>
	<path d="M911.09,213.42l-227.49-2.48c-11.05,8.22-20.63,12.5-29.51,13.23l-10.58,0.88c-23.55,17.27-68.02,43.92-70.34,45.31
		l-6.65,3.98l0.24-7.75c0.06-2,0.19-6.15,24.53-44.06c7.78-12.11,16.01-24.49,21.17-32.13L646.22,10l-72.75,82.81
		c2.22,10.94,2.63,19.38,2.65,19.87l0.01,0.3l-0.03,0.3c-2.65,26.92-8.45,44.37-18.23,54.9l-4.69,5.05
		c-5.48,33.46-22.78,96.38-23.66,99.58l-2.1,7.61l-5.18-5.96c-6.6-7.59-19.83-82.99-23.92-107.19l-2.94-2.25
		c-11.62-8.91-17.23-26.25-17.56-55.18L399.37,10l21.21,126.65c3.97,2.99,6.43,5.2,6.64,5.39l0.44,0.47
		c14.58,18.02,21.39,32.34,21.45,45.04l0.04,8.7c17,23.93,42.58,67.81,43.93,70.13l3.9,6.7l-7.74-0.33
		c-2-0.09-6.15-0.26-43.76-25.06c-13.02-8.58-26.36-17.7-33.68-22.8l-4.79,0.76c-1.44,0.23-2.89,0.34-4.33,0.34
		c-12.5,0-25.05-8.19-36.33-18.5l-232.89-2.54l205.12,77.21c1.2-0.51,2.44-0.99,3.72-1.46c15.49-5.7,30.72-6.83,31.36-6.87
		l0.31-0.02l0.31,0.02c24.47,1.91,40.43,6.97,50.21,15.93l6.73,6.17c30.58,4.09,81.29,20.68,83.9,21.54l7.06,2.32l-5.59,4.89
		c-3.39,2.97-20.11,7.51-49.69,13.5c-12.79,2.59-31.23,6.02-42.02,7.43l-1.92,2.7c-9.58,13.52-30.34,17.2-50.89,17.76
		c-32.38,45.99-72.71,104.63-73.34,112.22c-1.04,12.53,165.63-85.04,170.46-87.87c-0.02,0.01-0.04,0.03-0.08,0.04
		c0.11-0.07,0.19-0.11,0.19-0.11L522.27,990l40.46-549.08c-1.71-3.68-2.67-7.48-2.3-11.73l0.42-4.92
		c-15.38-22.3-35.79-72.13-36.78-74.57l-2.93-7.19l7.64,1.43c1.49,0.28,6.03,1.13,37.92,27.43c9.06,7.47,21.9,18.39,29.13,25.2
		l4.99,0.15c10.12,0.31,18.3,9.05,26.71,20.86l117.25,60.72L617.62,306.65L911.09,213.42z"/>
</g>
</svg>
