<?xml version="1.0" encoding="utf-8"?>
<!-- Generator: Adobe Illustrator 24.2.3, SVG Export Plug-In . SVG Version: 6.00 Build 0)  -->
<svg version="1.1" id="Layer_4" xmlns="http://www.w3.org/2000/svg" xmlns:xlink="http://www.w3.org/1999/xlink" x="0px" y="0px"
	 viewBox="0 0 1000 1000" style="enable-background:new 0 0 1000 1000;" xml:space="preserve">
<path d="M829.12,515.12l-95.86,193.34h90.73l138.25-274.34H545.86v-32.4h323.49L674.93,30.16h-90.73l152.03,290.54H545.86V1h-90.73
	v319.71H264.76L416.79,30.16h-90.73L131.65,401.71h323.49v32.4H38.76l138.25,274.34h90.73l-95.86-193.34h283.26v35.64H250.46
	l108.53,194.97C269.4,767.77,202.94,848.61,202.94,945c0,8.04,0.48,15.96,1.38,23.76h68.72c-1.35-7.72-2.06-15.66-2.06-23.76
	c0-70.96,53.89-129.32,122.98-136.43l106,190.43l106-190.43c69.09,7.1,122.98,65.46,122.98,136.43c0,8.1-0.71,16.04-2.06,23.76
	h68.72c0.9-7.8,1.38-15.72,1.38-23.76c0-96.39-66.46-177.23-156.05-199.26l108.53-194.97h-203.6v-35.64H829.12z M622.01,624.21
	L499.96,855.35L377.91,624.21H622.01z"/>
</svg>
